<svg width="166" height="30" viewBox="0 0 166 30" fill="none" xmlns="http://www.w3.org/2000/svg">
<rect width="166" height="30" rx="15" fill="#D8D8D8"/>
<path d="M57.696 20H56.2983L59.4389 11.2727H60.9602L64.1009 20H62.7031L60.2358 12.858H60.1676L57.696 20ZM57.9304 16.5824H62.4645V17.6903H57.9304V16.5824ZM67.6037 20.1278C67.0753 20.1278 66.6037 19.9929 66.1889 19.723C65.777 19.4503 65.4531 19.0625 65.2173 18.5597C64.9844 18.054 64.8679 17.4474 64.8679 16.7401C64.8679 16.0327 64.9858 15.4276 65.2216 14.9247C65.4602 14.4219 65.7869 14.0369 66.2017 13.7699C66.6165 13.5028 67.0866 13.3693 67.6122 13.3693C68.0185 13.3693 68.3452 13.4375 68.5923 13.5739C68.8423 13.7074 69.0355 13.8636 69.1719 14.0426C69.3111 14.2216 69.419 14.3793 69.4957 14.5156H69.5724V11.2727H70.8466V20H69.6023V18.9815H69.4957C69.419 19.1207 69.3082 19.2798 69.1634 19.4588C69.0213 19.6378 68.8253 19.794 68.5753 19.9276C68.3253 20.0611 68.0014 20.1278 67.6037 20.1278ZM67.8849 19.0412C68.2514 19.0412 68.5611 18.9446 68.8139 18.7514C69.0696 18.5554 69.2628 18.2841 69.3935 17.9375C69.527 17.5909 69.5938 17.1875 69.5938 16.7273C69.5938 16.2727 69.5284 15.875 69.3977 15.5341C69.267 15.1932 69.0753 14.9276 68.8224 14.7372C68.5696 14.5469 68.2571 14.4517 67.8849 14.4517C67.5014 14.4517 67.1818 14.5511 66.9261 14.75C66.6705 14.9489 66.4773 15.2202 66.3466 15.5639C66.2188 15.9077 66.1548 16.2955 66.1548 16.7273C66.1548 17.1648 66.2202 17.5582 66.3509 17.9077C66.4815 18.2571 66.6747 18.5341 66.9304 18.7386C67.1889 18.9403 67.5071 19.0412 67.8849 19.0412ZM75.1154 20.1278C74.587 20.1278 74.1154 19.9929 73.7006 19.723C73.2887 19.4503 72.9648 19.0625 72.729 18.5597C72.4961 18.054 72.3796 17.4474 72.3796 16.7401C72.3796 16.0327 72.4975 15.4276 72.7333 14.9247C72.9719 14.4219 73.2987 14.0369 73.7134 13.7699C74.1282 13.5028 74.5984 13.3693 75.1239 13.3693C75.5302 13.3693 75.8569 13.4375 76.104 13.5739C76.354 13.7074 76.5472 13.8636 76.6836 14.0426C76.8228 14.2216 76.9308 14.3793 77.0075 14.5156H77.0842V11.2727H78.3583V20H77.114V18.9815H77.0075C76.9308 19.1207 76.82 19.2798 76.6751 19.4588C76.533 19.6378 76.337 19.794 76.087 19.9276C75.837 20.0611 75.5131 20.1278 75.1154 20.1278ZM75.3967 19.0412C75.7631 19.0412 76.0728 18.9446 76.3256 18.7514C76.5813 18.5554 76.7745 18.2841 76.9052 17.9375C77.0387 17.5909 77.1055 17.1875 77.1055 16.7273C77.1055 16.2727 77.0401 15.875 76.9094 15.5341C76.7788 15.1932 76.587 14.9276 76.3342 14.7372C76.0813 14.5469 75.7688 14.4517 75.3967 14.4517C75.0131 14.4517 74.6935 14.5511 74.4379 14.75C74.1822 14.9489 73.989 15.2202 73.8583 15.5639C73.7305 15.9077 73.6665 16.2955 73.6665 16.7273C73.6665 17.1648 73.7319 17.5582 73.8626 17.9077C73.9933 18.2571 74.1864 18.5341 74.4421 18.7386C74.7006 18.9403 75.0188 19.0412 75.3967 19.0412ZM83.3526 20V13.4545H84.5842V14.4943H84.6523C84.7717 14.142 84.9819 13.8651 85.283 13.6634C85.587 13.4588 85.9308 13.3565 86.3143 13.3565C86.3938 13.3565 86.4876 13.3594 86.5955 13.3651C86.7063 13.3707 86.793 13.3778 86.8555 13.3864V14.6051C86.8043 14.5909 86.7134 14.5753 86.5827 14.5582C86.4521 14.5384 86.3214 14.5284 86.1907 14.5284C85.8896 14.5284 85.6211 14.5923 85.3853 14.7202C85.1523 14.8452 84.9677 15.0199 84.8313 15.2443C84.695 15.4659 84.6268 15.7187 84.6268 16.0028V20H83.3526ZM90.5447 20.1321C89.8999 20.1321 89.3445 19.9943 88.8786 19.7188C88.4155 19.4403 88.0575 19.0497 87.8047 18.5469C87.5547 18.0412 87.4297 17.4489 87.4297 16.7699C87.4297 16.0994 87.5547 15.5085 87.8047 14.9972C88.0575 14.4858 88.4098 14.0866 88.8615 13.7997C89.3161 13.5128 89.8473 13.3693 90.4553 13.3693C90.8246 13.3693 91.1825 13.4304 91.5291 13.5526C91.8757 13.6747 92.1868 13.8665 92.4624 14.1278C92.7379 14.3892 92.9553 14.7287 93.1143 15.1463C93.2734 15.5611 93.353 16.0653 93.353 16.6591V17.1108H88.1499V16.1562H92.1044C92.1044 15.821 92.0362 15.5241 91.8999 15.2656C91.7635 15.0043 91.5717 14.7983 91.3246 14.6477C91.0803 14.4972 90.7933 14.4219 90.4638 14.4219C90.1058 14.4219 89.7933 14.5099 89.5263 14.6861C89.2621 14.8594 89.0575 15.0866 88.9126 15.3679C88.7706 15.6463 88.6996 15.9489 88.6996 16.2756V17.0213C88.6996 17.4588 88.7763 17.831 88.9297 18.1378C89.0859 18.4446 89.3033 18.679 89.5817 18.8409C89.8601 19 90.1854 19.0795 90.5575 19.0795C90.799 19.0795 91.0192 19.0455 91.218 18.9773C91.4169 18.9062 91.5888 18.8011 91.7337 18.6619C91.8786 18.5227 91.9893 18.3509 92.0661 18.1463L93.272 18.3636C93.1754 18.7187 93.0021 19.0298 92.7521 19.2969C92.505 19.5611 92.1939 19.767 91.8189 19.9148C91.4467 20.0597 91.022 20.1321 90.5447 20.1321ZM97.5238 20.1321C96.8903 20.1321 96.3448 19.9886 95.8874 19.7017C95.4329 19.4119 95.0835 19.0128 94.8391 18.5043C94.5948 17.9957 94.4727 17.4134 94.4727 16.7571C94.4727 16.0923 94.5977 15.5057 94.8477 14.9972C95.0977 14.4858 95.4499 14.0866 95.9045 13.7997C96.359 13.5128 96.8945 13.3693 97.511 13.3693C98.0082 13.3693 98.4513 13.4616 98.8406 13.6463C99.2298 13.8281 99.5437 14.0838 99.7823 14.4134C100.024 14.7429 100.167 15.1278 100.213 15.5682H98.9727C98.9045 15.2614 98.7482 14.9972 98.5039 14.7756C98.2624 14.554 97.9386 14.4432 97.5323 14.4432C97.1772 14.4432 96.8661 14.5369 96.5991 14.7244C96.3349 14.9091 96.1289 15.1733 95.9812 15.517C95.8335 15.858 95.7596 16.2614 95.7596 16.7273C95.7596 17.2045 95.832 17.6165 95.9769 17.9631C96.1218 18.3097 96.3263 18.5781 96.5906 18.7685C96.8576 18.9588 97.1715 19.054 97.5323 19.054C97.7738 19.054 97.9925 19.0099 98.1886 18.9219C98.3874 18.831 98.5536 18.7017 98.6871 18.5341C98.8235 18.3665 98.9187 18.1648 98.9727 17.929H100.213C100.167 18.3523 100.029 18.7301 99.7994 19.0625C99.5692 19.3949 99.261 19.6562 98.8746 19.8466C98.4911 20.0369 98.0408 20.1321 97.5238 20.1321ZM101.575 20V13.4545H102.849V20H101.575ZM102.219 12.4446C101.997 12.4446 101.807 12.3707 101.648 12.223C101.491 12.0724 101.413 11.8935 101.413 11.6861C101.413 11.4759 101.491 11.2969 101.648 11.1491C101.807 10.9986 101.997 10.9233 102.219 10.9233C102.44 10.9233 102.629 10.9986 102.786 11.1491C102.945 11.2969 103.024 11.4759 103.024 11.6861C103.024 11.8935 102.945 12.0724 102.786 12.223C102.629 12.3707 102.44 12.4446 102.219 12.4446ZM104.564 22.4545V13.4545H105.808V14.5156H105.914C105.988 14.3793 106.095 14.2216 106.234 14.0426C106.373 13.8636 106.566 13.7074 106.814 13.5739C107.061 13.4375 107.387 13.3693 107.794 13.3693C108.322 13.3693 108.794 13.5028 109.208 13.7699C109.623 14.0369 109.949 14.4219 110.184 14.9247C110.423 15.4276 110.542 16.0327 110.542 16.7401C110.542 17.4474 110.424 18.054 110.189 18.5597C109.953 19.0625 109.629 19.4503 109.217 19.723C108.805 19.9929 108.335 20.1278 107.806 20.1278C107.409 20.1278 107.083 20.0611 106.831 19.9276C106.581 19.794 106.385 19.6378 106.243 19.4588C106.1 19.2798 105.991 19.1207 105.914 18.9815H105.838V22.4545H104.564ZM105.812 16.7273C105.812 17.1875 105.879 17.5909 106.012 17.9375C106.146 18.2841 106.339 18.5554 106.592 18.7514C106.845 18.9446 107.154 19.0412 107.521 19.0412C107.902 19.0412 108.22 18.9403 108.475 18.7386C108.731 18.5341 108.924 18.2571 109.055 17.9077C109.189 17.5582 109.255 17.1648 109.255 16.7273C109.255 16.2955 109.19 15.9077 109.059 15.5639C108.931 15.2202 108.738 14.9489 108.48 14.75C108.224 14.5511 107.904 14.4517 107.521 14.4517C107.152 14.4517 106.839 14.5469 106.583 14.7372C106.331 14.9276 106.139 15.1932 106.008 15.5341C105.877 15.875 105.812 16.2727 105.812 16.7273ZM111.97 20V13.4545H113.244V20H111.97ZM112.613 12.4446C112.392 12.4446 112.201 12.3707 112.042 12.223C111.886 12.0724 111.808 11.8935 111.808 11.6861C111.808 11.4759 111.886 11.2969 112.042 11.1491C112.201 10.9986 112.392 10.9233 112.613 10.9233C112.835 10.9233 113.024 10.9986 113.18 11.1491C113.339 11.2969 113.419 11.4759 113.419 11.6861C113.419 11.8935 113.339 12.0724 113.18 12.223C113.024 12.3707 112.835 12.4446 112.613 12.4446ZM117.779 20.1321C117.134 20.1321 116.579 19.9943 116.113 19.7188C115.65 19.4403 115.292 19.0497 115.039 18.5469C114.789 18.0412 114.664 17.4489 114.664 16.7699C114.664 16.0994 114.789 15.5085 115.039 14.9972C115.292 14.4858 115.644 14.0866 116.096 13.7997C116.55 13.5128 117.082 13.3693 117.69 13.3693C118.059 13.3693 118.417 13.4304 118.763 13.5526C119.11 13.6747 119.421 13.8665 119.697 14.1278C119.972 14.3892 120.19 14.7287 120.349 15.1463C120.508 15.5611 120.587 16.0653 120.587 16.6591V17.1108H115.384V16.1562H119.339C119.339 15.821 119.271 15.5241 119.134 15.2656C118.998 15.0043 118.806 14.7983 118.559 14.6477C118.315 14.4972 118.028 14.4219 117.698 14.4219C117.34 14.4219 117.028 14.5099 116.761 14.6861C116.496 14.8594 116.292 15.0866 116.147 15.3679C116.005 15.6463 115.934 15.9489 115.934 16.2756V17.0213C115.934 17.4588 116.011 17.831 116.164 18.1378C116.32 18.4446 116.538 18.679 116.816 18.8409C117.094 19 117.42 19.0795 117.792 19.0795C118.033 19.0795 118.254 19.0455 118.452 18.9773C118.651 18.9062 118.823 18.8011 118.968 18.6619C119.113 18.5227 119.224 18.3509 119.3 18.1463L120.506 18.3636C120.41 18.7187 120.237 19.0298 119.987 19.2969C119.739 19.5611 119.428 19.767 119.053 19.9148C118.681 20.0597 118.256 20.1321 117.779 20.1321ZM123.275 16.1136V20H122.001V13.4545H123.224V14.5199H123.305C123.456 14.1733 123.691 13.8949 124.012 13.6847C124.336 13.4744 124.744 13.3693 125.235 13.3693C125.681 13.3693 126.072 13.4631 126.407 13.6506C126.743 13.8352 127.002 14.1108 127.187 14.4773C127.372 14.8437 127.464 15.2969 127.464 15.8366V20H126.19V15.9901C126.19 15.5156 126.066 15.1449 125.819 14.8778C125.572 14.608 125.233 14.473 124.801 14.473C124.505 14.473 124.243 14.5369 124.012 14.6648C123.785 14.7926 123.605 14.9801 123.471 15.2273C123.341 15.4716 123.275 15.767 123.275 16.1136ZM132.228 13.4545V14.4773H128.653V13.4545H132.228ZM129.612 11.8864H130.886V18.0781C130.886 18.3253 130.923 18.5114 130.997 18.6364C131.071 18.7585 131.166 18.8423 131.282 18.8878C131.402 18.9304 131.531 18.9517 131.67 18.9517C131.772 18.9517 131.862 18.9446 131.939 18.9304C132.015 18.9162 132.075 18.9048 132.118 18.8963L132.348 19.9489C132.274 19.9773 132.169 20.0057 132.032 20.0341C131.896 20.0653 131.725 20.0824 131.521 20.0852C131.186 20.0909 130.873 20.0312 130.583 19.9062C130.294 19.7812 130.059 19.5881 129.88 19.3267C129.701 19.0653 129.612 18.7372 129.612 18.3423V11.8864Z" fill="#020202"/>
<path d="M36.9868 18.75H38.0132V16.0132H40.75V14.9868H38.0132V12.25H36.9868V14.9868H34.25V16.0132H36.9868V18.75ZM37.5012 22C36.6021 22 35.7571 21.8294 34.966 21.4882C34.175 21.147 33.4869 20.684 32.9018 20.0991C32.3166 19.5142 31.8534 18.8264 31.512 18.0357C31.1707 17.245 31 16.4001 31 15.5012C31 14.6021 31.1706 13.7571 31.5118 12.966C31.853 12.175 32.316 11.4869 32.9009 10.9018C33.4858 10.3166 34.1736 9.85338 34.9643 9.51196C35.755 9.17065 36.5999 9 37.4988 9C38.3979 9 39.2429 9.1706 40.034 9.51179C40.825 9.85298 41.5131 10.316 42.0982 10.9009C42.6834 11.4858 43.1466 12.1736 43.488 12.9643C43.8293 13.755 44 14.5999 44 15.4988C44 16.3979 43.8294 17.2429 43.4882 18.034C43.147 18.825 42.684 19.5131 42.0991 20.0982C41.5142 20.6834 40.8264 21.1466 40.0357 21.488C39.245 21.8293 38.4001 22 37.5012 22ZM37.5 20.9737C39.0281 20.9737 40.3224 20.4434 41.3829 19.3829C42.4434 18.3224 42.9737 17.0281 42.9737 15.5C42.9737 13.9719 42.4434 12.6776 41.3829 11.6171C40.3224 10.5566 39.0281 10.0263 37.5 10.0263C35.9719 10.0263 34.6776 10.5566 33.6171 11.6171C32.5566 12.6776 32.0263 13.9719 32.0263 15.5C32.0263 17.0281 32.5566 18.3224 33.6171 19.3829C34.6776 20.4434 35.9719 20.9737 37.5 20.9737Z" fill="#020202"/>
</svg>
