<svg width="118" height="23" viewBox="0 0 118 23" fill="none" xmlns="http://www.w3.org/2000/svg">
<rect width="118" height="23" rx="11.5" fill="#51AE30"/>
<path d="M30.875 15.6016L27 13.4512V9.1504L30.875 7L34.75 9.1504V13.4512L30.875 15.6016ZM29.612 10.2192C29.7732 10.0364 29.9632 9.89418 30.1817 9.79255C30.4003 9.69091 30.6314 9.64009 30.875 9.64009C31.1186 9.64009 31.3497 9.69091 31.5683 9.79255C31.7868 9.89418 31.9768 10.0364 32.138 10.2192L33.7136 9.34116L30.875 7.76304L28.0364 9.34116L29.612 10.2192ZM30.5429 14.6546V12.9317C30.1528 12.8454 29.8338 12.6506 29.5861 12.3475C29.3382 12.0443 29.2143 11.6954 29.2143 11.3008C29.2143 11.2111 29.2201 11.1269 29.2318 11.0483C29.2434 10.9697 29.2631 10.8892 29.2909 10.8068L27.6643 9.89562V13.0586L30.5429 14.6546ZM30.875 12.2972C31.1527 12.2972 31.3882 12.2006 31.5815 12.0073C31.7748 11.814 31.8714 11.5785 31.8714 11.3008C31.8714 11.0231 31.7748 10.7876 31.5815 10.5943C31.3882 10.401 31.1527 10.3044 30.875 10.3044C30.5973 10.3044 30.3618 10.401 30.1685 10.5943C29.9752 10.7876 29.8786 11.0231 29.8786 11.3008C29.8786 11.5785 29.9752 11.814 30.1685 12.0073C30.3618 12.2006 30.5973 12.2972 30.875 12.2972ZM31.2071 14.6546L34.0857 13.0586V9.89562L32.4591 10.8068C32.4869 10.8892 32.5066 10.9697 32.5182 11.0483C32.5299 11.1269 32.5357 11.2111 32.5357 11.3008C32.5357 11.6954 32.4118 12.0443 32.1639 12.3475C31.9162 12.6506 31.5972 12.8454 31.2071 12.9317V14.6546Z" fill="white"/>
<path d="M39.799 15V7.72727H42.4624C42.9785 7.72727 43.4058 7.8125 43.7443 7.98295C44.0829 8.15104 44.3362 8.3795 44.5043 8.66832C44.6723 8.95478 44.7564 9.27794 44.7564 9.63778C44.7564 9.94081 44.7008 10.1965 44.5895 10.4048C44.4782 10.6108 44.3291 10.7765 44.142 10.902C43.9574 11.0251 43.7538 11.1151 43.5312 11.1719V11.2429C43.7727 11.2547 44.0083 11.3329 44.2379 11.4773C44.4699 11.6193 44.6617 11.8217 44.8132 12.0845C44.9647 12.3473 45.0405 12.6669 45.0405 13.0433C45.0405 13.415 44.9529 13.7488 44.7777 14.0447C44.6049 14.3383 44.3374 14.5715 43.9751 14.7443C43.6129 14.9148 43.1501 15 42.5866 15H39.799ZM40.8963 14.0589H42.4801C43.0057 14.0589 43.3821 13.9571 43.6094 13.7536C43.8366 13.55 43.9503 13.2955 43.9503 12.9901C43.9503 12.7604 43.8923 12.5497 43.7763 12.358C43.6603 12.1662 43.4946 12.0135 43.2791 11.8999C43.0661 11.7862 42.8127 11.7294 42.5192 11.7294H40.8963V14.0589ZM40.8963 10.8736H42.3665C42.6127 10.8736 42.834 10.8262 43.0305 10.7315C43.2294 10.6368 43.3868 10.5043 43.5028 10.3338C43.6212 10.161 43.6804 9.95739 43.6804 9.72301C43.6804 9.42235 43.575 9.17022 43.3643 8.96662C43.1536 8.76302 42.8305 8.66122 42.3949 8.66122H40.8963V10.8736ZM47.3185 7.72727V15H46.2567V7.72727H47.3185ZM51.0446 15.1101C50.5332 15.1101 50.0869 14.9929 49.7058 14.7585C49.3246 14.5241 49.0287 14.1963 48.818 13.7749C48.6073 13.3535 48.502 12.861 48.502 12.2976C48.502 11.7318 48.6073 11.237 48.818 10.8132C49.0287 10.3894 49.3246 10.0604 49.7058 9.82599C50.0869 9.59162 50.5332 9.47443 51.0446 9.47443C51.5559 9.47443 52.0022 9.59162 52.3833 9.82599C52.7645 10.0604 53.0604 10.3894 53.2711 10.8132C53.4818 11.237 53.5872 11.7318 53.5872 12.2976C53.5872 12.861 53.4818 13.3535 53.2711 13.7749C53.0604 14.1963 52.7645 14.5241 52.3833 14.7585C52.0022 14.9929 51.5559 15.1101 51.0446 15.1101ZM51.0481 14.2188C51.3796 14.2188 51.6542 14.1312 51.872 13.956C52.0898 13.7808 52.2508 13.5476 52.3549 13.2564C52.4615 12.9652 52.5147 12.6444 52.5147 12.294C52.5147 11.946 52.4615 11.6264 52.3549 11.3352C52.2508 11.0417 52.0898 10.8061 51.872 10.6286C51.6542 10.451 51.3796 10.3622 51.0481 10.3622C50.7143 10.3622 50.4373 10.451 50.2172 10.6286C49.9993 10.8061 49.8372 11.0417 49.7306 11.3352C49.6265 11.6264 49.5744 11.946 49.5744 12.294C49.5744 12.6444 49.6265 12.9652 49.7306 13.2564C49.8372 13.5476 49.9993 13.7808 50.2172 13.956C50.4373 14.1312 50.7143 14.2188 51.0481 14.2188ZM57.07 15.1101C56.542 15.1101 56.0875 14.9905 55.7063 14.7514C55.3275 14.5099 55.0363 14.1773 54.8327 13.7536C54.6291 13.3298 54.5273 12.8445 54.5273 12.2976C54.5273 11.7436 54.6315 11.2547 54.8398 10.831C55.0482 10.4048 55.3417 10.0722 55.7205 9.8331C56.0993 9.59399 56.5456 9.47443 57.0593 9.47443C57.4736 9.47443 57.8429 9.55137 58.1673 9.70526C58.4916 9.85677 58.7532 10.0698 58.9521 10.3445C59.1533 10.6191 59.2728 10.9399 59.3107 11.3068H58.2773C58.2205 11.0511 58.0903 10.831 57.8867 10.6463C57.6855 10.4616 57.4156 10.3693 57.0771 10.3693C56.7811 10.3693 56.5219 10.4474 56.2994 10.6037C56.0792 10.7576 55.9076 10.9777 55.7844 11.2642C55.6613 11.5483 55.5998 11.8845 55.5998 12.2727C55.5998 12.6705 55.6602 13.0137 55.7809 13.3026C55.9016 13.5914 56.0721 13.8151 56.2923 13.9737C56.5148 14.1323 56.7764 14.2116 57.0771 14.2116C57.2783 14.2116 57.4606 14.175 57.6239 14.1016C57.7897 14.0258 57.9281 13.9181 58.0394 13.7784C58.1531 13.6387 58.2324 13.4706 58.2773 13.2741H59.3107C59.2728 13.6269 59.158 13.9418 58.9663 14.2188C58.7745 14.4957 58.5176 14.7135 58.1957 14.8722C57.8761 15.0308 57.5008 15.1101 57.07 15.1101ZM61.4228 13.1499L61.4157 11.8537H61.6003L63.7736 9.54545H65.0449L62.5662 12.1733H62.3993L61.4228 13.1499ZM60.4462 15V7.72727H61.508V15H60.4462ZM63.8908 15L61.9377 12.4077L62.6692 11.6655L65.1941 15H63.8908ZM68.0856 15.1101C67.5576 15.1101 67.1031 14.9905 66.7219 14.7514C66.3432 14.5099 66.052 14.1773 65.8484 13.7536C65.6448 13.3298 65.543 12.8445 65.543 12.2976C65.543 11.7436 65.6471 11.2547 65.8555 10.831C66.0638 10.4048 66.3574 10.0722 66.7362 9.8331C67.1149 9.59399 67.5612 9.47443 68.0749 9.47443C68.4892 9.47443 68.8585 9.55137 69.1829 9.70526C69.5072 9.85677 69.7688 10.0698 69.9677 10.3445C70.1689 10.6191 70.2885 10.9399 70.3263 11.3068H69.293C69.2362 11.0511 69.1059 10.831 68.9023 10.6463C68.7011 10.4616 68.4312 10.3693 68.0927 10.3693C67.7968 10.3693 67.5375 10.4474 67.315 10.6037C67.0948 10.7576 66.9232 10.9777 66.8001 11.2642C66.677 11.5483 66.6154 11.8845 66.6154 12.2727C66.6154 12.6705 66.6758 13.0137 66.7965 13.3026C66.9173 13.5914 67.0877 13.8151 67.3079 13.9737C67.5304 14.1323 67.792 14.2116 68.0927 14.2116C68.2939 14.2116 68.4762 14.175 68.6396 14.1016C68.8053 14.0258 68.9438 13.9181 69.055 13.7784C69.1687 13.6387 69.248 13.4706 69.293 13.2741H70.3263C70.2885 13.6269 70.1737 13.9418 69.9819 14.2188C69.7901 14.4957 69.5333 14.7135 69.2113 14.8722C68.8917 15.0308 68.5165 15.1101 68.0856 15.1101ZM72.5236 11.7614V15H71.4618V7.72727H72.5094V10.4332H72.5769C72.7047 10.1397 72.9 9.90649 73.1628 9.73366C73.4256 9.56084 73.7689 9.47443 74.1926 9.47443C74.5667 9.47443 74.8934 9.55137 75.1728 9.70526C75.4545 9.85914 75.6723 10.0888 75.8262 10.3942C75.9824 10.6972 76.0605 11.076 76.0605 11.5305V15H74.9988V11.6584C74.9988 11.2583 74.8958 10.9482 74.6898 10.728C74.4838 10.5054 74.1974 10.3942 73.8304 10.3942C73.5795 10.3942 73.3546 10.4474 73.1557 10.554C72.9592 10.6605 72.8042 10.8168 72.6905 11.0227C72.5792 11.2263 72.5236 11.4725 72.5236 11.7614ZM79.0648 15.1207C78.7192 15.1207 78.4067 15.0568 78.1273 14.929C77.848 14.7988 77.6266 14.6106 77.4632 14.3643C77.3023 14.1181 77.2218 13.8163 77.2218 13.4588C77.2218 13.151 77.281 12.8977 77.3993 12.6989C77.5177 12.5 77.6775 12.3426 77.8787 12.2266C78.08 12.1106 78.3049 12.023 78.5534 11.9638C78.802 11.9046 79.0553 11.8596 79.3134 11.8288C79.6401 11.791 79.9052 11.7602 80.1088 11.7365C80.3124 11.7105 80.4604 11.669 80.5527 11.6122C80.6451 11.5554 80.6912 11.4631 80.6912 11.3352V11.3104C80.6912 11.0002 80.6036 10.7599 80.4284 10.5895C80.2556 10.419 79.9976 10.3338 79.6543 10.3338C79.2968 10.3338 79.0151 10.4131 78.8091 10.5717C78.6055 10.728 78.4647 10.902 78.3865 11.0938L77.3887 10.8665C77.507 10.535 77.6799 10.2675 77.9071 10.0639C78.1368 9.85795 78.4007 9.70881 78.699 9.61648C78.9973 9.52178 79.311 9.47443 79.6401 9.47443C79.8579 9.47443 80.0887 9.50047 80.3326 9.55256C80.5788 9.60227 80.8084 9.6946 81.0215 9.82955C81.2369 9.96449 81.4133 10.1574 81.5506 10.4084C81.6879 10.657 81.7566 10.9801 81.7566 11.3778V15H80.7196V14.2543H80.677C80.6084 14.3916 80.5054 14.5265 80.3681 14.6591C80.2308 14.7917 80.0544 14.9018 79.839 14.9893C79.6235 15.0769 79.3655 15.1207 79.0648 15.1207ZM79.2956 14.2685C79.5892 14.2685 79.8401 14.2105 80.0485 14.0945C80.2592 13.9785 80.419 13.8269 80.5279 13.6399C80.6391 13.4505 80.6948 13.2481 80.6948 13.0327V12.3295C80.6569 12.3674 80.5835 12.4029 80.4746 12.4361C80.3681 12.4669 80.2462 12.4941 80.1088 12.5178C79.9715 12.5391 79.8378 12.5592 79.7076 12.5781C79.5774 12.5947 79.4685 12.6089 79.3809 12.6207C79.1749 12.6468 78.9867 12.6906 78.8162 12.7521C78.6481 12.8137 78.5132 12.9025 78.4114 13.0185C78.312 13.1321 78.2623 13.2836 78.2623 13.473C78.2623 13.7358 78.3593 13.9347 78.5534 14.0696C78.7476 14.2022 78.995 14.2685 79.2956 14.2685ZM83.1708 15V9.54545H84.2326V15H83.1708ZM83.707 8.70384C83.5224 8.70384 83.3638 8.64228 83.2312 8.51918C83.101 8.3937 83.0359 8.24455 83.0359 8.07173C83.0359 7.89654 83.101 7.7474 83.2312 7.62429C83.3638 7.49882 83.5224 7.43608 83.707 7.43608C83.8917 7.43608 84.0491 7.49882 84.1793 7.62429C84.3119 7.7474 84.3782 7.89654 84.3782 8.07173C84.3782 8.24455 84.3119 8.3937 84.1793 8.51918C84.0491 8.64228 83.8917 8.70384 83.707 8.70384ZM86.7228 11.7614V15H85.661V9.54545H86.6802V10.4332H86.7477C86.8732 10.1444 87.0697 9.91241 87.3372 9.73722C87.6071 9.56203 87.9468 9.47443 88.3564 9.47443C88.728 9.47443 89.0536 9.55256 89.3329 9.70881C89.6123 9.86269 89.8289 10.0923 89.9828 10.3977C90.1367 10.7031 90.2136 11.0807 90.2136 11.5305V15H89.1518V11.6584C89.1518 11.263 89.0488 10.9541 88.8429 10.7315C88.6369 10.5066 88.354 10.3942 87.9941 10.3942C87.7479 10.3942 87.5289 10.4474 87.3372 10.554C87.1478 10.6605 86.9975 10.8168 86.8862 11.0227C86.7773 11.2263 86.7228 11.4725 86.7228 11.7614Z" fill="white"/>
</svg>
