<svg width="17" height="17" viewBox="0 0 17 17" fill="none" xmlns="http://www.w3.org/2000/svg">
<g clip-path="url(#clip0_130_384)">
<path d="M13.4182 0H12.6214C11.7288 0.148081 10.9052 0.490201 10.2463 1.14891L7.26206 4.12841C7.16629 4.22415 7.16246 4.35819 7.21226 4.45904C7.26206 4.56244 7.37443 4.61861 7.50723 4.61733C8.1572 4.61223 8.77652 4.73095 9.37541 4.96839C9.49799 5.0169 9.62058 4.97605 9.70869 4.88796L11.8348 2.76887C12.4937 2.11144 13.5702 2.13059 14.2189 2.76887C14.8765 3.41609 14.902 4.50499 14.2355 5.17264L10.7085 8.70744C9.99728 9.41976 8.92975 9.47721 8.1904 8.77255C7.76773 8.36915 7.08073 8.37298 6.64785 8.77255C6.19836 9.18743 6.17154 9.89975 6.59805 10.3465C7.36038 11.1457 8.42536 11.5733 9.52864 11.5299C10.531 11.4904 11.4568 11.147 12.1694 10.4346L15.8687 6.7377C16.5238 6.08283 16.9107 5.21604 16.986 4.30968C17.1686 2.10633 15.5839 0.00127656 13.4182 0.00127656V0Z" fill="#51AE30"/>
<path d="M9.49916 12.3839C8.85557 12.3877 8.24009 12.278 7.64758 12.0431C7.52244 11.9933 7.39092 12.0124 7.29514 12.1082L5.19074 14.2171C4.50374 14.9064 3.38002 14.9064 2.71473 14.1839C2.1184 13.5367 2.10818 12.4963 2.739 11.8644L6.3502 8.2453C7.0372 7.55595 8.10728 7.56106 8.80577 8.22742C9.25654 8.65763 9.98184 8.62826 10.4071 8.17764C10.8029 7.75892 10.8055 7.0849 10.4096 6.67129C8.88494 5.08325 6.33616 5.06027 4.78083 6.6164L1.15303 10.2444C0.496676 10.9005 0.1519 11.7265 0.0012207 12.6175V13.4805C0.0152671 13.4907 0.0356983 13.5086 0.0382522 13.5354C0.217025 15.0149 1.24241 16.2468 2.56405 16.7408C4.05936 17.3 5.67214 16.9361 6.7716 15.8383L9.72773 12.8856C9.83116 12.7822 9.84649 12.652 9.79285 12.5422C9.74178 12.4375 9.63068 12.3826 9.49916 12.3839Z" fill="#51AE30"/>
</g>
<defs>
<clipPath id="clip0_130_384">
<rect width="17" height="17" fill="white"/>
</clipPath>
</defs>
</svg>
