<svg width="55" height="55" viewBox="0 0 55 55" fill="none" xmlns="http://www.w3.org/2000/svg">
<circle cx="27.5" cy="27.5" r="27.5" fill="#51AE30"/>
<path d="M27.5 26.5333C25.6392 26.5333 24.0463 25.8708 22.7213 24.5459C21.396 23.2206 20.7333 21.6275 20.7333 19.7667C20.7333 17.9058 21.396 16.3129 22.7213 14.988C24.0463 13.6627 25.6392 13 27.5 13C29.3608 13 30.9537 13.6627 32.2787 14.988C33.604 16.3129 34.2667 17.9058 34.2667 19.7667C34.2667 21.6275 33.604 23.2206 32.2787 24.5459C30.9537 25.8708 29.3608 26.5333 27.5 26.5333ZM13 41.2566V36.9583C13 36.0117 13.2571 35.1349 13.7714 34.328C14.2857 33.5212 14.973 32.9009 15.8333 32.4672C17.7441 31.5305 19.6718 30.8279 21.6164 30.3594C23.561 29.8909 25.5222 29.6566 27.5 29.6566C29.4778 29.6566 31.439 29.8909 33.3836 30.3594C35.3282 30.8279 37.2559 31.5305 39.1667 32.4672C40.027 32.9009 40.7143 33.5212 41.2286 34.328C41.7429 35.1349 42 36.0117 42 36.9583V41.2566H13ZM15.9 38.3566H39.1V36.9583C39.1 36.5668 38.9866 36.2043 38.7597 35.8708C38.5329 35.5377 38.225 35.2657 37.8361 35.055C36.1702 34.2346 34.4718 33.613 32.7408 33.1903C31.0095 32.7679 29.2626 32.5566 27.5 32.5566C25.7374 32.5566 23.9905 32.7679 22.2592 33.1903C20.5282 33.613 18.8298 34.2346 17.1639 35.055C16.775 35.2657 16.4671 35.5377 16.2403 35.8708C16.0134 36.2043 15.9 36.5668 15.9 36.9583V38.3566ZM27.5 23.6333C28.5633 23.6333 29.4736 23.2547 30.2308 22.4975C30.9881 21.7403 31.3667 20.83 31.3667 19.7667C31.3667 18.7033 30.9881 17.7931 30.2308 17.0358C29.4736 16.2786 28.5633 15.9 27.5 15.9C26.4367 15.9 25.5264 16.2786 24.7692 17.0358C24.0119 17.7931 23.6333 18.7033 23.6333 19.7667C23.6333 20.83 24.0119 21.7403 24.7692 22.4975C25.5264 23.2547 26.4367 23.6333 27.5 23.6333Z" fill="white"/>
</svg>
