<svg width="62" height="62" viewBox="0 0 62 62" fill="none" xmlns="http://www.w3.org/2000/svg">
<circle cx="31" cy="31" r="31" fill="#9BED7D"/>
<g clip-path="url(#clip0_315_142)">
<path d="M31.6052 28.1417L31.6213 29.6537C31.6259 30.0229 31.7066 30.3733 31.9025 30.6837C32.1883 31.1352 32.6723 31.368 33.2047 31.2622C33.5804 31.1869 33.9215 30.9847 34.2027 30.6955L38.8215 25.9735C39.8149 24.96 39.808 23.321 38.8169 22.3075L34.2488 17.6349C33.9468 17.3245 33.6173 17.1552 33.2531 17H32.6631C31.3585 17.5432 31.6582 18.7825 31.6028 20.0147C30.8999 20.0782 30.2591 20.177 29.6092 20.318C23.9831 21.5385 19.7123 26.2863 19.0071 32.1111C18.9633 32.4827 19.1707 32.8142 19.4749 32.96C19.7815 33.1082 20.2009 33.0423 20.4222 32.7366C22.9852 29.1693 27.3274 27.3422 31.6075 28.1417H31.6052Z" fill="black"/>
<path d="M42.5045 29.0306C42.1427 28.8848 41.7555 28.9953 41.5227 29.3128C39.0888 32.6731 35.0738 34.458 31.0035 33.9665L30.3766 33.863L30.3605 32.3651C30.3559 31.9912 30.2752 31.6408 30.0862 31.328C29.8027 30.8624 29.2933 30.6249 28.7586 30.7496C28.3968 30.8342 28.0787 31.0223 27.8067 31.2998L23.1833 36.0241C22.2061 37.0235 22.183 38.6579 23.1649 39.662L27.8137 44.4168C28.1202 44.7296 28.4959 44.9389 28.9154 44.9906C29.8142 45.1011 30.3489 44.2405 30.3628 43.3045L30.3835 41.9712C30.667 41.9571 30.9067 41.9218 31.1649 41.8936C37.3026 41.1764 42.2717 36.1699 42.9954 29.8301C43.0346 29.4797 42.7811 29.1435 42.5045 29.0306Z" fill="black"/>
</g>
<defs>
<clipPath id="clip0_315_142">
<rect width="24" height="28" fill="white" transform="translate(19 17)"/>
</clipPath>
</defs>
</svg>
