<svg width="31" height="31" viewBox="0 0 31 31" fill="none" xmlns="http://www.w3.org/2000/svg">
<circle cx="15.5" cy="15.5" r="15.5" fill="#51AE30"/>
<path d="M15.5 19.2885L11.2308 15.0192L12.2848 13.9348L14.75 16.4V8H16.25V16.4L18.7153 13.9348L19.7693 15.0192L15.5 19.2885ZM9.80775 23C9.30258 23 8.875 22.825 8.525 22.475C8.175 22.125 8 21.6974 8 21.1923V18.4808H9.5V21.1923C9.5 21.2692 9.53208 21.3398 9.59625 21.4038C9.66025 21.4679 9.73075 21.5 9.80775 21.5H21.1923C21.2692 21.5 21.3398 21.4679 21.4038 21.4038C21.4679 21.3398 21.5 21.2692 21.5 21.1923V18.4808H23V21.1923C23 21.6974 22.825 22.125 22.475 22.475C22.125 22.825 21.6974 23 21.1923 23H9.80775Z" fill="white"/>
</svg>
