<svg width="12" height="11" viewBox="0 0 12 11" fill="none" xmlns="http://www.w3.org/2000/svg">
<g clip-path="url(#clip0_130_382)">
<path d="M3.52859e-05 1.60898V1.78559C0.0196457 1.7943 0.0249338 1.80815 0.0346289 1.84186L1.33198 6.43099C1.37495 6.5826 1.49591 6.68665 1.65676 6.68688L7.6427 6.68933C7.83638 6.68933 7.96858 6.84183 7.97387 7.01198C7.97938 7.19172 7.84343 7.35583 7.64292 7.35583L1.6561 7.35762C1.46176 7.35762 1.33088 7.51101 1.32427 7.67959C1.317 7.86559 1.46088 8.01764 1.65103 8.02523C1.82554 8.03216 1.98551 8.01027 2.16596 8.03684C1.65676 8.1237 1.30003 8.56848 1.32714 9.08292C1.35446 9.5996 1.77112 10.0104 2.28142 10.0272C2.79173 10.0439 3.23835 9.65698 3.29564 9.14165C3.35403 8.61515 3.01933 8.17372 2.49669 8.02903L6.83979 8.02836C6.32662 8.13576 5.97121 8.5629 5.99875 9.08359C6.02608 9.59915 6.4423 10.0109 6.95304 10.0274C7.46753 10.0442 7.90997 9.65788 7.96726 9.1412C8.02455 8.62452 7.68875 8.15853 7.17184 8.04042C7.34282 8.00268 7.48802 8.03997 7.64711 8.02211C8.11951 8.02077 8.50863 7.68964 8.60999 7.24598C8.71663 6.77887 8.48505 6.30528 8.04019 6.10366L9.23222 0.671413L10.9055 0.674093C11.0903 0.674316 11.2067 0.58277 11.2814 0.426025V0.247846C11.2073 0.0908778 11.0901 -0.000444935 10.9057 1.63018e-06L8.96936 0.00402072C8.80543 0.0120589 8.67961 0.114546 8.64414 0.27464L8.40816 1.33992L0.379458 1.33858C0.180492 1.33858 0.0577641 1.43281 3.52859e-05 1.60875V1.60898ZM1.89979 6.01881L0.770119 2.0091H8.25987L7.38072 6.01993L1.89957 6.01904L1.89979 6.01881ZM7.07423 8.70893C7.26768 8.76408 7.3534 8.96481 7.29611 9.13495C7.2397 9.30286 7.06365 9.39619 6.89509 9.34796C6.72653 9.29973 6.61835 9.11463 6.66858 8.93712C6.71552 8.771 6.8865 8.65556 7.07423 8.70915V8.70893ZM2.40305 8.70893C2.59651 8.76408 2.68222 8.96481 2.62493 9.13495C2.56852 9.30286 2.39247 9.39619 2.22391 9.34796C2.05535 9.29973 1.94717 9.11463 1.99741 8.93712C2.04434 8.771 2.21532 8.65556 2.40305 8.70915V8.70893Z" fill="#51AE30"/>
</g>
<defs>
<clipPath id="clip0_130_382">
<rect width="11.2813" height="10.0279" fill="white" transform="matrix(-1 0 0 1 11.2814 0)"/>
</clipPath>
</defs>
</svg>
