<svg width="21" height="19" viewBox="0 0 21 19" fill="none" xmlns="http://www.w3.org/2000/svg">
<g clip-path="url(#clip0_235_768)">
<path d="M20.8264 7.54027L10.8498 0.124983C10.6261 -0.0413533 10.3753 -0.0413533 10.1535 0.123145L0.220289 7.50718C-0.0413736 7.70109 -0.0585764 8.05582 0.11164 8.28189C0.307208 8.54104 0.636776 8.56953 0.908398 8.36735L10.5003 1.24247L20.1664 8.41882C20.4842 8.65499 20.8482 8.41882 21.0003 8.11739V7.80034L20.8255 7.54119L20.8264 7.54027Z" fill="#FEFEFE"/>
<path d="M18.1434 8.52632C17.8464 8.52448 17.6002 8.75239 17.5938 9.08874L17.592 17.8926H13.2298L13.228 13.1231C13.2452 11.5663 12.0202 10.3239 10.5199 10.3119C9.03956 10.3 7.79644 11.5001 7.77018 13.0404V17.8926L3.40431 17.8898V9.13193C3.41789 8.77996 3.17252 8.52632 2.85654 8.52724C2.56771 8.52724 2.31329 8.75882 2.31329 9.09333V18.4422C2.3142 18.7647 2.56137 19.0009 2.87283 19.0009L8.32338 18.9991C8.62488 18.9991 8.85848 18.7528 8.85938 18.4513L8.86391 13.0817C8.86391 12.137 9.62083 11.4119 10.5181 11.422C11.399 11.4321 12.1333 12.1508 12.1342 13.0817L12.1388 18.4504C12.1388 18.7519 12.3742 18.9981 12.6748 18.9981L18.1244 19C18.4386 19 18.6839 18.7693 18.6839 18.4219V9.09333C18.6839 8.75974 18.4332 8.52907 18.1425 8.52724L18.1434 8.52632Z" fill="#FEFEFE"/>
</g>
<defs>
<clipPath id="clip0_235_768">
<rect width="21" height="19" fill="white"/>
</clipPath>
</defs>
</svg>
