<svg width="15" height="18" viewBox="0 0 15 18" fill="none" xmlns="http://www.w3.org/2000/svg">
<g clip-path="url(#clip0_130_254)">
<path d="M14.7582 12.5408C14.5633 12.2509 14.3438 12.0088 14.1332 11.7344C13.6776 11.1401 13.3951 10.477 13.27 9.72427C13.148 8.98657 13.1162 8.26606 13.1157 7.51225C13.1136 5.68519 12.6773 4.01974 11.2756 2.82407C10.8399 2.45254 10.3134 2.21577 9.83538 1.94839C9.61123 1.39539 9.35425 0.875673 8.88719 0.50253C8.06515 -0.154632 6.96528 -0.175571 6.13594 0.489644C5.67149 0.86225 5.35873 1.36586 5.18306 1.95967C2.77064 2.99105 1.88657 4.89703 1.88448 7.51279C1.88396 8.26606 1.85112 8.98711 1.72966 9.7248C1.6056 10.4781 1.32255 11.1406 0.866966 11.7355C0.651682 12.0168 0.422325 12.2649 0.226849 12.5634C-0.0598478 13.0015 -0.0801772 13.5566 0.189839 14.0382C0.395219 14.4044 0.832041 14.7797 1.34393 14.7797L13.674 14.7775C14.2031 14.7775 14.6279 14.3727 14.8218 14.013C15.0851 13.5239 15.047 12.9725 14.7572 12.5414L14.7582 12.5408Z" fill="#010101"/>
<path d="M10.1099 16.0731H4.89101C4.81751 16.0731 4.77008 16.1219 4.756 16.1579C4.74297 16.1917 4.72473 16.2535 4.75079 16.3034C5.30177 17.3595 6.36933 18.007 7.51872 18C8.64883 17.993 9.70961 17.3557 10.2522 16.2911C10.3106 16.1762 10.198 16.0731 10.1094 16.0731H10.1099Z" fill="#010101"/>
</g>
<defs>
<clipPath id="clip0_130_254">
<rect width="15" height="18" fill="white"/>
</clipPath>
</defs>
</svg>
