<svg width="30" height="17" viewBox="0 0 30 17" fill="none" xmlns="http://www.w3.org/2000/svg">
<g clip-path="url(#clip0_235_760)">
<path d="M27.5649 12.1056V2.25292C27.5649 1.01062 26.5405 0 25.2814 0H2.28351C1.02435 0 0 1.01062 0 2.25292V12.1056C0 13.3479 1.02435 14.3585 2.28351 14.3585H25.2832C26.5424 14.3585 27.5667 13.3479 27.5667 12.1056H27.5649ZM1.1094 12.1056V2.25292C1.1094 1.61444 1.63636 1.09454 2.28351 1.09454H25.2832C25.9304 1.09454 26.4573 1.61444 26.4573 2.25292V12.1056C26.4573 12.7441 25.9304 13.264 25.2832 13.264H2.28351C1.63636 13.264 1.1094 12.7441 1.1094 12.1056Z" fill="#FEFEFE"/>
<path d="M28.9886 3.88562V14.9478C28.9886 15.5297 28.5079 16.004 27.918 16.004H7.45703V17.0018H27.918C29.0663 17.0018 29.9982 16.0806 29.9982 14.9496V3.88562H28.9868H28.9886Z" fill="#FEFEFE"/>
<path d="M13.7824 2.36786C11.094 2.36786 8.90662 4.52592 8.90662 7.17835C8.90662 9.83078 11.094 11.9888 13.7824 11.9888C16.4709 11.9888 18.6582 9.83078 18.6582 7.17835C18.6582 4.52592 16.4709 2.36786 13.7824 2.36786ZM13.7824 10.991C11.6505 10.991 9.91802 9.27987 9.91802 7.17835C9.91802 5.07684 11.6524 3.36571 13.7824 3.36571C15.9125 3.36571 17.6468 5.07684 17.6468 7.17835C17.6468 9.27987 15.9125 10.991 13.7824 10.991Z" fill="#FEFEFE"/>
<path d="M3.60181 4.79955C4.42897 4.79955 5.0995 4.138 5.0995 3.32193C5.0995 2.50586 4.42897 1.8443 3.60181 1.8443C2.77466 1.8443 2.10413 2.50586 2.10413 3.32193C2.10413 4.138 2.77466 4.79955 3.60181 4.79955Z" fill="#FEFEFE"/>
<path d="M23.963 12.4705C24.7902 12.4705 25.4607 11.8089 25.4607 10.9928C25.4607 10.1768 24.7902 9.5152 23.963 9.5152C23.1359 9.5152 22.4653 10.1768 22.4653 10.9928C22.4653 11.8089 23.1359 12.4705 23.963 12.4705Z" fill="#FEFEFE"/>
</g>
<defs>
<clipPath id="clip0_235_760">
<rect width="30" height="17" fill="white"/>
</clipPath>
</defs>
</svg>
