<svg width="129" height="133" viewBox="0 0 129 133" fill="none" xmlns="http://www.w3.org/2000/svg">
<g clip-path="url(#clip0_109_163)">
<path d="M108.342 16.7321C106.195 18.0422 95.8612 24.2967 93.9687 25.4498C91.6069 26.8384 89.1316 28.2028 86.6472 29.3952C86.1411 29.6366 85.635 29.8842 85.1166 30.1015L84.8344 29.7695L89.8555 25.6159C91.0579 24.6137 92.2695 23.6236 93.4841 22.6365L85.0092 25.3925C84.6994 25.4981 84.3988 25.5917 84.3988 25.5917L81.4144 26.5637L80.9175 26.7267L80.8868 26.2105L80.7212 23.0984L80.6905 22.552L80.4237 17.6347L77.4024 21.2329L77.2214 21.4442L75.0038 24.0854L74.6909 24.4567L74.3781 24.0885L72.1727 21.4653C72.1727 21.4653 72.0408 21.3083 71.958 21.2087L65.9492 14.0577C66.4768 15.6002 66.9982 17.1397 67.5074 18.6882L69.6361 25.0876L69.2189 25.2265C67.2896 22.395 65.5597 19.3372 63.9923 16.3095C62.9863 14.3263 56.8517 2.2459 55.7076 0.00610352C60.784 4.7936 69.5226 12.7899 74.4578 18.0633C75.5559 16.6959 76.6693 15.3315 77.749 14.0486L84.3651 6.39949L84.7332 16.3186C84.8037 18.0241 84.8743 19.7296 84.9233 21.4321C88.0305 20.6382 91.1499 19.9137 94.3 19.2919L108.333 16.7382L108.342 16.7321Z" fill="white"/>
<path d="M27.768 88.2607L44.5612 61.3076L53.7538 67.5803C54.2446 67.9153 54.4317 68.5311 54.2047 69.0805C52.4687 73.2975 47.1347 83.5999 35.1079 88.1943C32.3658 89.2417 29.9549 89.2659 27.7649 88.2607H27.768Z" fill="white"/>
<path d="M83.9664 63.5806C85.2608 63.1882 87.8435 63.0372 90.0887 63.1429L105.597 82.8181C102.244 80.8892 97.9992 77.6985 93.5455 73.723C87.638 68.4465 84.8283 64.9661 83.9664 63.5806Z" fill="white"/>
<path d="M129 112.512V132.827H87.4201V110.544C87.4201 109.056 71.8967 89.2991 70.4612 85.9212L67.8295 80.4455V87.3309C67.8295 89.2568 65.4156 95.0374 64.4402 96.9784L42.0185 132.83H0L26.265 90.6755C27.7986 91.4332 29.4304 91.8135 31.1389 91.8135C32.7369 91.8135 34.4086 91.4815 36.1416 90.8204C49.2081 85.8277 54.9777 74.6951 56.8548 70.14C57.5879 68.3621 56.9806 66.3577 55.3825 65.268L46.0581 58.9048L48.1009 55.6296C57.6554 58.3252 65.1027 66.5962 67.0351 76.1168L68.9583 69.162C71.6391 62.7113 78.8655 57.1299 86.2147 58.2256L87.8587 60.3145C87.6042 60.3205 87.3373 60.3266 87.0674 60.3386C85.2822 60.4202 82.761 60.6526 81.4451 61.7483C81.2058 61.9476 80.6721 62.5211 80.8685 63.5353C81.4696 66.6445 90.5058 74.8068 91.5333 75.7274C94.6804 78.5438 102.603 85.2964 108.244 87.1709L109.001 87.4215L109.139 87.3098L129.003 112.512H129Z" fill="white"/>
<path d="M84.6688 32.9481C83.2578 33.0326 81.6905 33.3314 80.0372 33.8084C79.4422 33.9774 78.8379 34.1706 78.2245 34.3849C77.5282 34.6294 76.8197 34.8981 76.108 35.1909C75.6081 35.3961 75.102 35.6165 74.599 35.8459C72.55 36.7726 70.4919 37.8744 68.5503 39.0849C68.1332 39.3445 67.7221 39.6071 67.3173 39.8757C66.5811 40.3617 65.8695 40.8628 65.1824 41.373C64.8266 41.6386 64.4739 41.9073 64.1334 42.1759C62.8483 43.1932 61.6858 44.2406 60.7012 45.2851C60.3852 45.6231 60.0847 45.9582 59.8025 46.2963C59.4865 46.6766 59.1921 47.06 58.9314 47.4343C57.9621 48.8259 56.4377 51.4521 58.278 52.738C59.2013 53.384 60.8821 53.4745 61.9864 53.4202C69.9643 53.0187 83.6228 45.282 88.009 38.6804C90.5886 34.8015 89.4599 32.6703 84.6688 32.9541V32.9481ZM86.9048 37.2284C85.6074 40.8326 76.7951 46.1665 73.3168 47.9565C70.5839 49.3632 66.986 51.0083 63.9617 51.5698C62.2072 51.8958 59.0203 52.0497 59.7841 49.3541C60.7901 45.7982 69.63 40.398 72.9457 38.6562C75.967 37.0684 80.8102 34.7834 84.2087 34.5781C86.0307 34.4694 87.6563 35.1365 86.9048 37.2314V37.2284Z" fill="white"/>
<path d="M91.288 43.667C91.1254 43.7756 90.4353 42.1999 90.2206 42.1365C90.1163 42.1063 89.2789 42.5591 89.2176 42.6738C89.0949 42.9093 90.2758 44.485 90.3555 44.8714L87.2055 48.1798C87.0214 48.216 87.095 48.1345 87.049 48.065C86.8834 47.7964 86.1779 46.4199 86 46.3867C85.9141 46.3716 84.9571 46.8848 84.9694 47.0357C85.0062 47.4432 86.181 48.7201 86.0491 49.1125C85.9448 49.4174 82.9941 51.3523 82.5279 51.6934C82.3469 51.6783 81.6077 49.9969 81.4574 49.9094C81.2918 49.8128 80.3869 50.2988 80.3225 50.4316C80.2244 50.6369 81.5126 52.3213 81.3777 52.5054L77.4976 54.5943C77.1264 53.9755 76.6817 53.3687 76.4302 52.6895L75.237 53.2782L76.3013 55.2191L72.3262 56.9186L72.0746 56.8431L71.0134 54.9505C70.9336 54.8961 69.9276 55.3942 69.9214 55.6176C69.9122 55.8953 71.0256 57.2627 70.8385 57.471C69.3754 57.8453 67.9277 58.3283 66.4063 58.4551C66.1916 58.3826 65.4555 56.8431 65.2316 56.5352C65.1702 56.4537 65.1641 56.3873 65.0322 56.3994C64.8911 56.4115 64.0476 56.9156 64.0476 57.0635C64.0476 57.3261 64.8819 58.2498 64.8788 58.6452C64.4187 58.615 63.9096 58.6875 63.4556 58.6452C63.0231 58.603 62.2594 58.4128 61.8514 58.2377C60.4528 57.64 59.9283 55.6629 59.1001 54.4916C63.5323 55.1255 68.17 53.6223 72.1851 51.8896C78.0251 49.3661 86.9294 43.7575 89.874 38.0644C89.9445 37.9286 90.4568 36.54 90.558 36.6155C90.8647 37.6449 92.2849 39.0998 92.3953 40.0929C92.5486 41.4724 91.9045 42.4957 91.2911 43.6609L91.288 43.667Z" fill="white"/>
<path d="M63.017 41.4212C61.7533 42.4415 60.6061 43.495 59.6246 44.5545C57.7904 43.2747 55.4746 41.5118 54.5207 40.6274C54.5329 40.25 55.7169 38.7498 55.5727 38.5234C55.4961 38.4026 54.6526 37.9499 54.5115 38.0193C54.2599 38.1461 53.668 39.6433 53.4502 39.6946L53.3214 39.6523L50.2142 36.4768C50.2878 36.1055 51.5546 34.4211 51.3859 34.1947C51.3491 34.1434 50.4504 33.6936 50.294 33.7751C50.0302 33.911 49.5854 35.2422 49.3308 35.1788C48.9229 35.0792 47.8279 32.0968 48.2052 31.5444L50.021 28.23C50.2725 28.1938 50.1621 28.2571 50.205 28.3628C50.9718 30.2645 51.8337 31.6229 53.2293 33.1503C55.3918 35.5229 59.6154 39.0516 63.0201 41.4182L63.017 41.4212Z" fill="white"/>
<path d="M53.5269 28.3416C53.7937 30.1467 57.1923 33.0023 58.6492 34.1343C60.2534 35.381 63.52 37.5302 66.1088 39.1361C65.3972 39.6191 64.704 40.1141 64.0384 40.6212C60.1921 38.0011 54.2017 33.0325 52.2356 29.703C49.1039 24.4023 53.941 24.1186 58.0112 24.8279C63.7255 25.8241 69.9245 29.1264 74.6235 32.4016C74.7125 32.465 75.6787 32.9993 76.7216 33.5728C76.0713 33.8203 75.4149 34.086 74.7524 34.3727C70.3294 31.7103 63.9034 28.085 59.7136 26.8534C57.9622 26.3372 53.0361 25.0513 53.5208 28.3446L53.5269 28.3416Z" fill="white"/>
<path d="M73.2709 35.0428C71.2435 36.0027 69.216 37.1226 67.299 38.3481C64.6795 36.7724 61.1337 34.427 59.4713 33.138C58.3057 32.2325 55.0728 29.5338 54.806 28.1604C54.6956 27.5959 54.9777 27.5114 55.4961 27.4389C58.9744 26.9529 67.3603 31.4688 70.4613 33.3373C70.6177 33.4308 71.9551 34.2489 73.2678 35.0458L73.2709 35.0428Z" fill="white"/>
<path d="M85.7669 36.5582C85.3957 38.792 78.8103 43.2746 76.7921 44.5183C73.4119 46.6011 66.1701 50.4528 62.2593 50.5313C61.3944 50.5494 60.7073 50.4347 61.0999 49.4748C62.1275 46.9512 68.1393 42.9305 70.5716 41.4634C73.9211 39.447 80.528 35.9937 84.3958 35.8398C85.0215 35.8156 85.9049 35.7462 85.7699 36.5582H85.7669Z" fill="white"/>
</g>
<defs>
<clipPath id="clip0_109_163">
<rect width="129" height="132.827" fill="white"/>
</clipPath>
</defs>
</svg>
