<svg width="35" height="35" viewBox="0 0 35 35" fill="none" xmlns="http://www.w3.org/2000/svg">
<circle cx="17.5" cy="17.5" r="17.5" fill="#51AE30"/>
<g clip-path="url(#clip0_153_182)">
<path d="M8.54716 14.5925C8.67486 14.887 8.96132 15.0285 9.27885 15.0354C9.72408 15.0446 10.1037 14.7375 10.1049 14.2751L10.1164 10.8655C10.1175 10.4422 10.4454 10.1144 10.8699 10.1121L14.2787 10.1006C14.7435 10.0994 15.0461 9.72442 15.0392 9.2712C15.0334 8.86974 14.7631 8.47403 14.3202 8.47288L10.6456 8.47058C9.53885 8.61322 8.69441 9.39083 8.50459 10.479C8.49884 10.5135 8.49078 10.5388 8.46777 10.5457V14.4626C8.51264 14.4844 8.5253 14.5396 8.54716 14.5914V14.5925Z" fill="white"/>
<path d="M25.7315 19.9605C25.2771 19.9559 24.9032 20.2561 24.9021 20.722L24.8905 24.1304C24.8894 24.5537 24.5615 24.8827 24.1381 24.8839L20.7282 24.8954C20.2657 24.8965 19.9585 25.275 19.9689 25.7213C19.9758 26.0388 20.1173 26.3252 20.4118 26.4529C20.4659 26.4759 20.5223 26.4885 20.551 26.5323H24.3878C25.521 26.5323 26.3608 25.4475 26.5346 24.4019L26.5311 20.676C26.5311 20.24 26.133 19.964 25.7338 19.9605H25.7315Z" fill="white"/>
<path d="M14.2788 24.8954L10.87 24.8839C10.4466 24.8827 10.1176 24.5537 10.1164 24.1304L10.1049 20.7209C10.1038 20.2573 9.72528 19.9513 9.2789 19.9617C8.96137 19.9686 8.67491 20.1101 8.54606 20.4045C8.5242 20.4563 8.51154 20.5104 8.46667 20.5334V24.4502C8.48738 24.4594 8.50004 24.4801 8.50579 24.5169C8.67721 25.5372 9.46182 26.3206 10.4823 26.4931C10.5191 26.4989 10.5398 26.5115 10.549 26.5323H14.3961C14.7815 26.4276 15.0358 26.1423 15.0393 25.7201C15.0427 25.2761 14.7447 24.8965 14.2776 24.8954H14.2788Z" fill="white"/>
<path d="M19.0669 16.6706L22.5206 16.6683C22.944 16.6683 23.2489 16.3083 23.2489 15.9103V12.5249C23.2489 12.0889 22.9141 11.753 22.478 11.753H19.0922C18.6792 11.753 18.3318 12.074 18.3318 12.4927V15.9356C18.3318 16.3347 18.6666 16.6706 19.0669 16.6706ZM21.6071 13.3945L21.6106 15.0291L19.97 15.0326V13.3957L21.6083 13.3934L21.6071 13.3945Z" fill="white"/>
<path d="M15.94 18.3259H12.4967C12.0779 18.3259 11.757 18.6733 11.757 19.0863V22.4728C11.757 22.9065 12.0917 23.2447 12.5278 23.2447L15.9331 23.2412C16.3519 23.2412 16.674 22.8984 16.674 22.4993V19.061C16.674 18.6607 16.3392 18.3259 15.9389 18.3259H15.94ZM13.3987 21.602V19.9628L15.0369 19.964L15.0404 21.5951L13.3998 21.602H13.3987Z" fill="white"/>
<path d="M15.9147 11.753H12.5289C12.0929 11.753 11.757 12.0878 11.757 12.5237V15.9091C11.757 16.3255 12.0825 16.6706 12.5025 16.6706H15.9274C16.3438 16.6706 16.6752 16.3359 16.6752 15.9344V12.4973C16.6752 12.0763 16.3312 11.753 15.9147 11.753ZM13.3998 15.0349V13.3945L15.0381 13.3968L15.0404 15.0268L13.3998 15.0349Z" fill="white"/>
<path d="M20.727 10.1013L24.1358 10.1128C24.5615 10.1139 24.8871 10.4418 24.8894 10.8662L24.9044 14.2907C24.9067 14.7601 25.2955 15.0407 25.7315 15.0361C26.133 15.0315 26.5288 14.7589 26.53 14.3172L26.5334 10.6166C26.362 9.44101 25.5095 8.60588 24.3326 8.46899L20.6868 8.47475C20.2427 8.47475 19.9735 8.87045 19.9677 9.27306C19.962 9.72629 20.2646 10.1001 20.7293 10.1024L20.727 10.1013Z" fill="white"/>
<path d="M23.2546 22.4406C23.2626 21.9782 22.9486 21.6066 22.4723 21.6066H19.9102C19.4397 21.6089 19.1382 21.9885 19.144 22.4394C19.1509 22.8743 19.4477 23.2424 19.9079 23.2424H22.4964C22.9635 23.2412 23.2477 22.8639 23.2546 22.4406Z" fill="white"/>
<path d="M19.962 20.0364C19.9735 19.7098 19.9746 19.3808 19.962 19.0564C19.9436 18.6124 19.5938 18.3248 19.1647 18.3179C18.7068 18.3098 18.3387 18.6181 18.3306 19.0886C18.3249 19.4038 18.3203 19.719 18.3329 20.033C18.3502 20.492 18.7126 20.7991 19.1842 20.783C19.6249 20.768 19.9482 20.4655 19.9643 20.0364H19.962Z" fill="white"/>
<path d="M22.5103 18.3259C22.1859 18.3133 21.8569 18.3144 21.5336 18.3259C21.0884 18.342 20.7973 18.6906 20.7881 19.1208C20.7777 19.5844 21.0918 19.9605 21.5658 19.9594H22.4965C22.974 19.9571 23.2639 19.5683 23.2558 19.1208C23.2478 18.6906 22.9556 18.3432 22.5103 18.3271V18.3259Z" fill="white"/>
</g>
<defs>
<clipPath id="clip0_153_182">
<rect width="18.0645" height="18.0645" fill="white" transform="translate(8.46777 8.46774)"/>
</clipPath>
</defs>
</svg>
