<svg width="62" height="62" viewBox="0 0 62 62" fill="none" xmlns="http://www.w3.org/2000/svg">
<circle cx="31" cy="31" r="31" fill="#9BED7D"/>
<g clip-path="url(#clip0_315_140)">
<path d="M30.5114 46.8963L30.0811 46.4659L19.0305 24.8611C18.7466 24.307 18.8364 23.7426 19.1383 23.2439L19.5336 22.8487C20.0739 22.591 20.5991 22.5529 21.162 22.8355L29.5581 27.0316L31.3741 37.1643L33.2355 27.0116L41.7478 22.7673C42.3362 22.4743 43.0266 22.6419 43.4608 23.0761C43.8949 23.5102 44.0638 24.2045 43.7657 24.7827L32.6791 46.3843C32.2623 47.1949 31.2384 47.2798 30.5127 46.8975L30.5114 46.8963Z" fill="black"/>
</g>
<defs>
<clipPath id="clip0_315_140">
<rect width="26" height="26" fill="white" transform="translate(49.7695 29.3848) rotate(135)"/>
</clipPath>
</defs>
</svg>
