<svg width="55" height="55" viewBox="0 0 55 55" fill="none" xmlns="http://www.w3.org/2000/svg">
<circle cx="27.5" cy="27.5" r="27.5" fill="#51AE30"/>
<g clip-path="url(#clip0_164_478)">
<path d="M13.1274 22.8325C13.3324 23.3052 13.7923 23.5324 14.3021 23.5435C15.0168 23.5582 15.6263 23.0652 15.6281 22.3228L15.6466 16.8493C15.6485 16.1697 16.1748 15.6434 16.8563 15.6397L22.3287 15.6213C23.0748 15.6194 23.5606 15.0174 23.5495 14.2898C23.5402 13.6453 23.1062 13.0101 22.3952 13.0082L16.4962 13.0045C14.7195 13.2335 13.3638 14.4819 13.0591 16.2288C13.0499 16.2842 13.0369 16.3248 13 16.3359V22.6238C13.072 22.6589 13.0923 22.7475 13.1274 22.8306V22.8325Z" fill="white"/>
<path d="M40.7147 31.45C39.9851 31.4426 39.3849 31.9246 39.383 32.6725L39.3646 38.1442C39.3627 38.8237 38.8364 39.3519 38.1567 39.3537L32.6825 39.3722C31.94 39.374 31.4469 39.9816 31.4635 40.6981C31.4746 41.2078 31.7018 41.6676 32.1746 41.8726C32.2614 41.9095 32.3519 41.9298 32.3981 42H38.5575C40.3767 42 41.7249 40.2586 42.0038 38.58L41.9983 32.5986C41.9983 31.8987 41.3592 31.4555 40.7184 31.45H40.7147Z" fill="white"/>
<path d="M22.3288 39.3722L16.8565 39.3537C16.1768 39.3519 15.6486 38.8237 15.6467 38.1442L15.6283 32.6707C15.6264 31.9264 15.0188 31.4352 14.3022 31.4519C13.7925 31.4629 13.3326 31.6901 13.1257 32.1628C13.0906 32.2459 13.0703 32.3327 12.9983 32.3696V38.6575C13.0315 38.6723 13.0519 38.7056 13.0611 38.7646C13.3363 40.4026 14.5959 41.6602 16.2341 41.9372C16.2932 41.9464 16.3264 41.9668 16.3412 42H22.5172C23.1359 41.8319 23.5441 41.374 23.5496 40.6963C23.5552 39.9834 23.0768 39.374 22.327 39.3722H22.3288Z" fill="white"/>
<path d="M30.0154 26.1686L35.5598 26.1649C36.2394 26.1649 36.7288 25.5869 36.7288 24.9479V19.5132C36.7288 18.8133 36.1914 18.2741 35.4914 18.2741H30.056C29.393 18.2741 28.8352 18.7893 28.8352 19.4615V24.9885C28.8352 25.6293 29.3727 26.1686 30.0154 26.1686ZM34.0933 20.9093L34.0989 23.5334L31.4652 23.5389V20.9111L34.0952 20.9074L34.0933 20.9093Z" fill="white"/>
<path d="M24.9956 28.8259H19.4678C18.7956 28.8259 18.2803 29.3836 18.2803 30.0465V35.4831C18.2803 36.1793 18.8177 36.7222 19.5177 36.7222L24.9845 36.7167C25.6568 36.7167 26.1739 36.1664 26.1739 35.5256V30.0059C26.1739 29.3633 25.6365 28.8259 24.9937 28.8259H24.9956ZM20.9158 34.0852V31.4537L23.5458 31.4555L23.5513 34.0741L20.9176 34.0852H20.9158Z" fill="white"/>
<path d="M24.955 18.2741H19.5195C18.8196 18.2741 18.2803 18.8115 18.2803 19.5113V24.9461C18.2803 25.6146 18.8029 26.1686 19.4771 26.1686H24.9753C25.6439 26.1686 26.1758 25.6312 26.1758 24.9867V19.4689C26.1758 18.793 25.6235 18.2741 24.955 18.2741ZM20.9176 23.5426V20.9093L23.5476 20.913L23.5513 23.5297L20.9176 23.5426Z" fill="white"/>
<path d="M32.6805 15.6224L38.1529 15.6409C38.8362 15.6427 39.3589 16.169 39.3626 16.8505L39.3866 22.348C39.3903 23.1014 40.0145 23.552 40.7145 23.5446C41.3591 23.5372 41.9944 23.0996 41.9963 22.3905L42.0018 16.4497C41.7266 14.5624 40.3581 13.2218 38.4687 13.002L32.6159 13.0112C31.903 13.0112 31.4708 13.6465 31.4616 14.2928C31.4523 15.0204 31.9381 15.6206 32.6842 15.6243L32.6805 15.6224Z" fill="white"/>
<path d="M36.7383 35.4314C36.7512 34.6891 36.247 34.0926 35.4824 34.0926H31.3693C30.6139 34.0963 30.1301 34.7057 30.1393 35.4296C30.1504 36.1276 30.6269 36.7185 31.3656 36.7185H35.5212C36.271 36.7167 36.7272 36.111 36.7383 35.4314Z" fill="white"/>
<path d="M31.4524 31.5719C31.4709 31.0475 31.4727 30.5193 31.4524 29.9986C31.4228 29.2857 30.8614 28.8241 30.1725 28.813C29.4374 28.8001 28.8464 29.295 28.8335 30.0503C28.8243 30.5562 28.8169 31.0622 28.8372 31.5664C28.8649 32.3032 29.4467 32.7962 30.2039 32.7704C30.9113 32.7464 31.4302 32.2607 31.4561 31.5719H31.4524Z" fill="white"/>
<path d="M35.5433 28.8259C35.0225 28.8056 34.4942 28.8074 33.9753 28.8259C33.2605 28.8517 32.7933 29.4113 32.7785 30.1019C32.7619 30.8461 33.2661 31.45 34.027 31.4482H35.5211C36.2876 31.4445 36.753 30.8203 36.7401 30.1019C36.7271 29.4113 36.258 28.8536 35.5433 28.8277V28.8259Z" fill="white"/>
</g>
<defs>
<clipPath id="clip0_164_478">
<rect width="29" height="29" fill="white" transform="translate(13 13)"/>
</clipPath>
</defs>
</svg>
