<svg width="62" height="62" viewBox="0 0 62 62" fill="none" xmlns="http://www.w3.org/2000/svg">
<circle cx="31" cy="31" r="31" fill="#9BED7D"/>
<g clip-path="url(#clip0_264_132)">
<path d="M32.2581 17.8733L32.6884 18.3036L43.739 39.9085C44.0228 40.4626 43.933 41.0269 43.6312 41.5256L43.2359 41.9209C42.6955 42.1786 42.1704 42.2166 41.6074 41.934L33.2113 37.7379L31.3954 27.6053L29.534 37.758L21.0217 42.0022C20.4333 42.2953 19.7428 42.1276 19.3087 41.6935C18.8746 41.2593 18.7056 40.5651 19.0037 39.9868L30.0904 18.3852C30.5072 17.5746 31.531 17.4897 32.2568 17.872L32.2581 17.8733Z" fill="black"/>
</g>
<defs>
<clipPath id="clip0_264_132">
<rect width="26" height="26" fill="white" transform="translate(13 35.3848) rotate(-45)"/>
</clipPath>
</defs>
</svg>
