<svg width="20" height="20" viewBox="0 0 20 20" fill="none" xmlns="http://www.w3.org/2000/svg">
<path d="M19.4077 11.5898L18.5473 10.9017C17.9631 10.4342 17.9626 9.5729 18.5473 9.10494L19.4071 8.41682C20.0209 7.92539 20.1803 7.09693 19.7781 6.42238L18.0821 3.57811C17.6853 2.91295 16.868 2.63332 16.1315 2.89938L15.0725 3.28178C14.3661 3.53689 13.5962 3.10702 13.4707 2.38603L13.2818 1.30143C13.1671 0.641489 12.5878 0.0446705 11.8453 0.0248461C10.6054 -0.00802067 9.39347 -0.00854236 8.15354 0.0248461C7.41163 0.0446705 6.83124 0.642532 6.71656 1.30195L6.5292 2.3803C6.40375 3.10284 5.63653 3.53794 4.92639 3.28178L3.86736 2.89938C3.12976 2.6328 2.31301 2.91295 1.91621 3.57811L0.221337 6.42238C-0.180846 7.09641 -0.0220187 7.92539 0.592831 8.4163L1.43111 9.08511C1.71916 9.31466 1.88175 9.64019 1.8866 9.98608C1.89144 10.3455 1.72723 10.6841 1.43111 10.921L0.592831 11.5898C-0.0220187 12.0807 -0.180307 12.9097 0.221337 13.5837L1.91729 16.4285C2.31301 17.0926 3.13083 17.3738 3.8679 17.1062L4.89355 16.7342C5.61607 16.4723 6.40106 16.8855 6.52973 17.6273L6.71548 18.6968C6.82047 19.302 7.27003 19.7825 7.88057 19.9431C7.93064 19.9562 7.96833 19.965 7.98448 20H11.9342C12.6002 20 13.1746 19.2994 13.2705 18.7542L13.4702 17.62C13.5994 16.8844 14.3849 16.4733 15.1064 16.7352L16.132 17.1067C16.8686 17.3738 17.6864 17.0926 18.0827 16.4285L19.7786 13.5842C20.1808 12.9097 20.022 12.0812 19.4082 11.5898H19.4077ZM16.6925 15.6402L15.6588 15.2682C14.0065 14.673 12.1759 15.6512 11.8852 17.3383L11.6957 18.436L8.30752 18.4391L8.1207 17.3701C7.8305 15.708 6.06241 14.6558 4.42891 15.2395L3.30635 15.6402L1.61632 12.7975L2.48637 12.1015C3.84421 11.0149 3.83936 8.9959 2.48637 7.90504L1.61632 7.20336L3.30689 4.36743L4.26631 4.71383C5.10514 5.01642 6.00534 4.98616 6.81724 4.50985C7.47677 4.12276 7.98394 3.42577 8.12662 2.60462L8.30644 1.56958H11.6919L11.8712 2.60462C12.0122 3.4169 12.5092 4.1071 13.1569 4.49524C13.9542 4.97312 14.8474 5.03207 15.6766 4.73314L16.6909 4.36743L18.3815 7.20336L17.5518 7.87217C16.889 8.40639 16.5035 9.16806 16.4982 9.98503C16.4928 10.8187 16.8793 11.5939 17.5518 12.136L18.3809 12.8043L16.6909 15.6407L16.6925 15.6402Z" fill="#FDFDFD"/>
<path d="M9.7585 6.15891C7.53169 6.29142 5.88259 8.16222 6.03226 10.2678C6.18193 12.3718 8.06902 13.9775 10.2414 13.8492C12.4257 13.7198 14.1034 11.8882 13.9688 9.76799C13.8358 7.67443 11.974 6.0264 9.7585 6.15839V6.15891ZM10.1612 12.2883C8.87876 12.3733 7.74921 11.4338 7.64476 10.1906C7.54031 8.94267 8.49704 7.81216 9.8398 7.72139C11.1675 7.63165 12.2674 8.61192 12.3573 9.84729C12.4489 11.1051 11.4561 12.2027 10.1612 12.2888V12.2883Z" fill="#FDFDFD"/>
</svg>
