<svg width="24" height="24" viewBox="0 0 24 24" fill="none" xmlns="http://www.w3.org/2000/svg">
<g clip-path="url(#clip0_140_91)">
<path d="M0 12.1909V11.8156C0.156763 11.4885 0.408641 11.2924 0.797906 11.2941L3.56327 11.3029C3.97544 11.3041 4.27429 11.6412 4.26254 12.0253C4.25139 12.3876 3.96017 12.7024 3.56327 12.7041L0.797906 12.713C0.409228 12.7141 0.156763 12.518 0 12.1909Z" fill="#51AE30"/>
<path d="M12.1418 0C12.4747 0.118626 12.7078 0.364686 12.7072 0.750514L12.7013 3.56406C12.7007 3.97631 12.3614 4.27523 11.9786 4.26348C11.6175 4.25232 11.301 3.96105 11.2998 3.56347L11.2946 0.750514C11.294 0.364099 11.5271 0.118626 11.86 0H12.1412L12.1418 0Z" fill="#51AE30"/>
<path d="M14.8097 19.7859L9.19325 19.7847C8.72531 19.7847 8.48342 19.4265 8.47989 18.9831C8.47344 18.1392 8.25503 17.2207 7.6403 16.61C6.22826 15.2064 5.51784 13.3378 5.70513 11.3482C5.96405 8.59745 8.00021 6.36059 10.6787 5.81385C14.1504 5.10503 17.5246 7.29139 18.2057 10.7885C18.5973 12.801 18.0054 14.8952 16.5629 16.3868C15.8771 17.0956 15.499 17.9883 15.5225 18.9942C15.5325 19.4171 15.2653 19.7864 14.8097 19.7864V19.7859ZM11.9762 9.89705C12.4178 9.88941 12.7125 9.5488 12.7002 9.16885C12.6878 8.78889 12.3714 8.48352 11.9563 8.48822C10.3939 8.50466 9.05469 9.5165 8.62081 11.0087C8.5069 11.4004 8.68422 11.7816 9.07113 11.9107C9.40814 12.0229 9.84144 11.8444 9.9483 11.4539C10.2002 10.536 10.9834 9.91408 11.9768 9.89705H11.9762Z" fill="#51AE30"/>
<path d="M12.9379 23.9977L11.0873 24C10.0193 23.8614 9.22965 23.0216 9.19384 21.9464C9.18503 21.6886 9.18386 21.4531 9.19208 21.1935H14.8097C14.8173 21.4537 14.8168 21.6886 14.8079 21.9464C14.771 23.0052 14.0089 23.8438 12.9379 23.9977Z" fill="#51AE30"/>
<path d="M23.3254 12.7L20.4385 12.7047C20.0422 12.7053 19.7498 12.384 19.7392 12.0264C19.7275 11.6441 20.0263 11.3035 20.4385 11.3035H23.2996C23.6929 11.3035 23.9877 11.6183 24 11.9818C24.0117 12.3318 23.7411 12.7 23.326 12.7006L23.3254 12.7Z" fill="#51AE30"/>
<path d="M6.50714 5.51376C6.80716 5.81326 6.80364 6.24196 6.5406 6.51856C6.27757 6.79516 5.81961 6.81512 5.52546 6.51973L3.54038 4.52952C3.26502 4.25351 3.29027 3.82481 3.53921 3.56348C3.78815 3.30215 4.24317 3.25576 4.52911 3.54058L6.50772 5.51317L6.50714 5.51376Z" fill="#51AE30"/>
<path d="M18.4898 6.50855C18.1904 6.80864 17.7618 6.80512 17.4853 6.54203C17.2011 6.27248 17.1888 5.82088 17.4841 5.52666L19.4739 3.54115C19.7492 3.26631 20.1784 3.29156 20.4397 3.53997C20.701 3.78838 20.7473 4.24409 20.4626 4.53009L18.4904 6.50914L18.4898 6.50855Z" fill="#51AE30"/>
</g>
<defs>
<clipPath id="clip0_140_91">
<rect width="24" height="24" fill="white"/>
</clipPath>
</defs>
</svg>
