<svg width="62" height="62" viewBox="0 0 62 62" fill="none" xmlns="http://www.w3.org/2000/svg">
<circle cx="31" cy="31" r="31" fill="#9BED7D"/>
<g clip-path="url(#clip0_315_141)">
<path d="M39.2827 25.3527L35.5484 25.3468L35.5557 20.5857C35.5557 19.7356 35.2251 18.9818 34.6003 18.5094C33.9449 18.0133 33.1046 17.8504 32.3123 18.1555L22.212 22.0355C20.8488 22.5597 19.9065 23.8689 19.908 25.3646L19.9109 32.6048C19.9109 32.9809 20.4366 33.2667 20.7702 33.1527C23.0276 32.3782 25.4642 32.7647 27.3532 34.2678C29.1286 35.6806 30.183 37.9331 30.0141 40.3055C29.9514 41.1852 29.7067 41.9538 29.3951 42.7712C29.2509 43.1474 29.5101 43.7101 29.9602 43.7101L39.2871 43.7072C41.9742 43.7072 44.0656 41.3895 43.984 38.6617C43.9607 37.8605 43.4015 37.3407 42.6631 37.3348C42.2349 37.3304 41.8212 37.3615 41.3872 37.3259C40.4697 37.2504 39.625 36.7854 39.1589 35.9709C38.6885 35.1445 38.7045 34.1449 39.2099 33.3126C39.6454 32.5959 40.4406 32.0627 41.3552 32.0553L42.7752 32.045C43.6389 32.0391 43.9666 31.3104 43.9971 30.5448C44.1064 27.7666 42.0586 25.3616 39.2842 25.3572L39.2827 25.3527ZM21.8246 26.302C21.6819 25.2565 21.8785 24.2243 22.8674 23.8452L33.0085 19.9518C33.2997 19.8971 33.6362 20.0674 33.6362 20.3917L33.6464 25.3453H24.7651C23.651 25.3453 22.7028 25.6534 21.8246 26.3005V26.302ZM34.4576 31.7903L28.1018 31.7843C27.5687 31.7843 27.1886 31.306 27.1886 30.8277C27.1886 30.339 27.5687 29.8666 28.1032 29.8666L34.4285 29.8592C35.0169 29.8592 35.4174 30.3093 35.4188 30.8277C35.4188 31.3386 35.0096 31.7903 34.4576 31.7903Z" fill="#010101"/>
<path d="M23.7325 34.7402C21.1808 34.3893 18.7413 36.0538 18.1427 38.6217C17.4422 41.625 19.4083 44.5276 22.3532 44.9496C25.3039 45.3717 28.01 43.1311 28.1236 40.0152C28.2226 37.317 26.2695 35.0912 23.7325 34.7417V34.7402ZM25.0505 40.8268L24.0296 40.8416C23.9961 41.1348 24.0267 41.4221 24.0223 41.7227C24.0135 42.2707 23.6043 42.6957 23.1062 42.7179C22.5921 42.7401 22.1158 42.3403 22.11 41.7909L22.0998 40.8431L21.1036 40.8312C20.6172 40.8253 20.256 40.3973 20.221 39.9412C20.1846 39.4658 20.5196 38.9416 21.0162 38.9223L22.1042 38.8809C22.1187 38.5699 22.1187 38.2767 22.1085 37.9716C22.0925 37.4251 22.4683 36.9823 22.978 36.9364C23.4674 36.892 23.9888 37.2519 24.0019 37.7909L24.0281 38.8823C24.3573 38.9238 24.6617 38.8853 24.9835 38.9001C25.4991 38.9223 25.8909 39.3325 25.9083 39.8316C25.9244 40.3159 25.5646 40.8194 25.052 40.8268H25.0505Z" fill="#010101"/>
<path d="M41.393 33.4104C40.7085 33.4104 40.2031 33.9924 40.174 34.644C40.1463 35.2971 40.6415 35.8924 41.3304 35.9605C41.9857 36.0242 42.6324 35.9635 43.2965 35.9842C43.681 35.996 43.981 35.7117 43.9825 35.2956V34.0886C43.9825 33.7258 43.7291 33.4119 43.3591 33.4119H41.3915L41.393 33.4104Z" fill="#010101"/>
</g>
<defs>
<clipPath id="clip0_315_141">
<rect width="26" height="27" fill="white" transform="translate(18 18)"/>
</clipPath>
</defs>
</svg>
