<svg width="20" height="20" viewBox="0 0 20 20" fill="none" xmlns="http://www.w3.org/2000/svg">
<g clip-path="url(#clip0_235_751)">
<path d="M16.9518 0H7.81046C6.1289 0 4.76221 1.41375 4.76221 3.14929V3.1827C4.76221 4.91999 6.1306 6.33199 7.81046 6.33199H16.9518C18.6334 6.33199 20.0001 4.91823 20.0001 3.1827V3.14929C20.0001 1.41199 18.6317 0 16.9518 0ZM18.9789 3.1827C18.9789 4.33796 18.07 5.27695 16.9518 5.27695H7.81046C6.69226 5.27695 5.7834 4.33796 5.7834 3.1827V3.14929C5.7834 1.99402 6.69226 1.05504 7.81046 1.05504H16.9518C18.07 1.05504 18.9789 1.99402 18.9789 3.14929V3.1827Z" fill="white"/>
<path d="M16.9518 6.83313H7.81046C6.1289 6.83313 4.76221 8.24688 4.76221 9.98242V10.0158C4.76221 11.7531 6.1306 13.1651 7.81046 13.1651H16.9518C18.6334 13.1651 20.0001 11.7514 20.0001 10.0158V9.98242C20.0001 8.24512 18.6317 6.83313 16.9518 6.83313ZM18.9789 10.0158C18.9789 11.1711 18.07 12.1101 16.9518 12.1101H7.81046C6.69226 12.1101 5.7834 11.1711 5.7834 10.0158V9.98242C5.7834 8.82715 6.69226 7.88817 7.81046 7.88817H16.9518C18.07 7.88817 18.9789 8.82715 18.9789 9.98242V10.0158Z" fill="white"/>
<path d="M16.9518 13.668H7.81046C6.1289 13.668 4.76221 15.0818 4.76221 16.8173V16.8507C4.76221 18.588 6.1306 20 7.81046 20H16.9518C18.6334 20 20.0001 18.5863 20.0001 16.8507V16.8173C20.0001 15.08 18.6317 13.668 16.9518 13.668ZM18.9789 16.8507C18.9789 18.006 18.07 18.945 16.9518 18.945H7.81046C6.69226 18.945 5.7834 18.006 5.7834 16.8507V16.8173C5.7834 15.6621 6.69226 14.7231 7.81046 14.7231H16.9518C18.07 14.7231 18.9789 15.6621 18.9789 16.8173V16.8507Z" fill="white"/>
<path d="M3.59629 2.59365H2.64658V1.63709C2.64658 1.31354 2.38958 1.04626 2.07472 1.04626C1.75985 1.04626 1.50285 1.31178 1.50285 1.63709V2.59365H0.554846C0.248489 2.59365 0 2.85214 0 3.16689C0 3.48164 0.250191 3.74013 0.554846 3.74013H1.50455V4.6967C1.50455 5.02024 1.76155 5.28752 2.07642 5.28752C2.39129 5.28752 2.64829 5.022 2.64829 4.6967V3.74013H3.59799C3.90435 3.74013 4.15284 3.48164 4.15284 3.16689C4.15284 2.85214 3.90265 2.59365 3.59799 2.59365H3.59629Z" fill="white"/>
<path d="M3.59629 9.42678H2.64658V8.47022C2.64658 8.14667 2.38958 7.87939 2.07472 7.87939C1.75985 7.87939 1.50285 8.14491 1.50285 8.47022V9.42678H0.554846C0.248489 9.42678 0 9.68527 0 10C0 10.3148 0.250191 10.5733 0.554846 10.5733H1.50455V11.5298C1.50455 11.8534 1.76155 12.1206 2.07642 12.1206C2.39129 12.1206 2.64829 11.8551 2.64829 11.5298V10.5733H3.59799C3.90435 10.5733 4.15284 10.3148 4.15284 10C4.15284 9.68527 3.90265 9.42678 3.59799 9.42678H3.59629Z" fill="white"/>
<path d="M3.59629 16.2599H2.64658V15.3033C2.64658 14.9798 2.38958 14.7125 2.07472 14.7125C1.75985 14.7125 1.50285 14.978 1.50285 15.3033V16.2599H0.554846C0.248489 16.2599 0 16.5184 0 16.8332C0 17.1479 0.250191 17.4064 0.554846 17.4064H1.50455V18.363C1.50455 18.6865 1.76155 18.9538 2.07642 18.9538C2.39129 18.9538 2.64829 18.6883 2.64829 18.363V17.4064H3.59799C3.90435 17.4064 4.15284 17.1479 4.15284 16.8332C4.15284 16.5184 3.90265 16.2599 3.59799 16.2599H3.59629Z" fill="white"/>
</g>
<defs>
<clipPath id="clip0_235_751">
<rect width="20" height="20" fill="white"/>
</clipPath>
</defs>
</svg>
