<svg width="12" height="7" viewBox="0 0 12 7" fill="none" xmlns="http://www.w3.org/2000/svg">
<path d="M11.8414 1.92263L9.38317 0.111453C9.15317 -0.0580939 8.79425 -0.0209102 8.58267 0.133652C8.37822 0.283219 8.31358 0.546003 8.53982 0.714995L9.95555 1.77334L2.9675 1.77556C2.62438 1.77556 2.40227 1.97175 2.39889 2.20956C2.39513 2.45403 2.6131 2.6602 2.98141 2.6602L11.4727 2.65798C11.7223 2.65798 11.8899 2.51951 11.9583 2.37439C12.0342 2.21372 12.0128 2.04861 11.8414 1.92263Z" fill="#51AE30"/>
<path d="M9.0329 3.54762L0.604333 3.54623C0.370196 3.54623 0.205961 3.63031 0.0917113 3.76878C-0.0428331 3.93194 -0.0368199 4.14034 0.159735 4.28463L2.64881 6.11385C2.87881 6.28284 3.25877 6.21125 3.44367 6.05447C3.63534 5.89186 3.67142 5.646 3.45044 5.48034L2.0535 4.4342L9.03365 4.43198C9.37678 4.42338 9.59776 4.24023 9.60265 3.99576C9.60754 3.75379 9.3843 3.54762 9.0329 3.54762Z" fill="#51AE30"/>
</svg>
