<svg width="290" height="65" viewBox="0 0 290 65" fill="none" xmlns="http://www.w3.org/2000/svg">
<path d="M94.1553 36.6503H87.1817V47.2811C87.1817 48.8008 86.823 49.9548 86.1043 50.7388C85.3856 51.5228 84.4809 51.9177 83.386 51.9177C82.2911 51.9177 81.3176 51.5287 80.6165 50.752C79.9153 49.9753 79.5654 48.8344 79.5654 47.3322V18.3844C79.5654 16.7111 79.9504 15.5146 80.7189 14.7979C81.4874 14.0812 82.7097 13.7213 84.3843 13.7213H94.1523C97.0404 13.7213 99.2625 13.9437 100.819 14.3869C102.357 14.814 103.685 15.5234 104.804 16.5136C105.924 17.5038 106.775 18.7164 107.356 20.1513C107.937 21.5862 108.227 23.1995 108.227 24.9927C108.227 28.8191 107.047 31.7167 104.689 33.6898C102.331 35.663 98.8175 36.6488 94.1523 36.6488L94.1553 36.6503ZM92.3094 19.4346H87.1817V30.9107H92.3094C94.104 30.9107 95.6044 30.7235 96.8092 30.3476C98.0139 29.9717 98.9331 29.3574 99.5655 28.5032C100.198 27.649 100.514 26.53 100.514 25.1478C100.514 23.492 100.027 22.142 99.0532 21.1006C97.9597 19.9904 95.7113 19.436 92.3108 19.436L92.3094 19.4346Z" fill="white"/>
<path d="M115.013 20.2289C114.038 20.2289 113.205 19.9305 112.513 19.3323C111.821 18.7355 111.475 17.8886 111.475 16.796C111.475 15.8058 111.829 14.9896 112.539 14.349C113.248 13.7083 114.073 13.388 115.013 13.388C115.953 13.388 116.721 13.679 117.423 14.2597C118.124 14.8404 118.474 15.6858 118.474 16.796C118.474 17.9062 118.131 18.7136 117.447 19.3191C116.764 19.9261 115.951 20.2289 115.012 20.2289H115.013ZM118.475 27.4531V47.6659C118.475 49.0671 118.141 50.1246 117.475 50.8428C116.809 51.561 115.963 51.9193 114.937 51.9193C113.911 51.9193 113.078 51.5522 112.437 50.8179C111.796 50.0837 111.475 49.0335 111.475 47.6673V27.6593C111.475 26.2756 111.796 25.2342 112.437 24.5336C113.078 23.833 113.911 23.4834 114.937 23.4834C115.963 23.4834 116.809 23.833 117.475 24.5336C118.141 25.2342 118.475 26.2069 118.475 27.4546V27.4531Z" fill="white"/>
<path d="M140.513 48.716L134.334 38.5709L130.54 42.1574V47.717C130.54 49.067 130.186 50.1041 129.476 50.8296C128.766 51.5551 127.95 51.9178 127.027 51.9178C125.949 51.9178 125.103 51.5595 124.488 50.8413C123.874 50.1246 123.565 49.0656 123.565 47.6643V17.8462C123.565 16.2928 123.863 15.1095 124.462 14.2977C125.061 13.4874 125.914 13.0807 127.025 13.0807C128.136 13.0807 128.956 13.4479 129.588 14.1821C130.221 14.9164 130.537 16.0017 130.537 17.4351V34.3934L138.408 26.1439C139.383 25.1186 140.125 24.4194 140.639 24.0435C141.151 23.6676 141.775 23.4804 142.511 23.4804C143.382 23.4804 144.109 23.7583 144.69 24.3127C145.272 24.8685 145.563 25.5633 145.563 26.3999C145.563 27.4252 144.614 28.7914 142.717 30.4983L139.001 33.9049L146.179 45.1763C146.709 46.013 147.09 46.6492 147.319 47.0851C147.549 47.521 147.665 47.9349 147.665 48.3269C147.665 49.4371 147.362 50.3118 146.754 50.9524C146.147 51.5931 145.348 51.9134 144.357 51.9134C143.502 51.9134 142.845 51.6823 142.382 51.2216C141.921 50.7608 141.296 49.9242 140.51 48.7116L140.513 48.716Z" fill="white"/>
<path d="M167.986 48.716L161.807 38.5709L158.013 42.1574V47.717C158.013 49.067 157.659 50.1041 156.949 50.8296C156.239 51.5551 155.423 51.9178 154.5 51.9178C153.422 51.9178 152.576 51.5595 151.961 50.8413C151.347 50.1246 151.038 49.0656 151.038 47.6643V17.8462C151.038 16.2928 151.336 15.1095 151.935 14.2977C152.534 13.4874 153.387 13.0807 154.498 13.0807C155.609 13.0807 156.429 13.4479 157.061 14.1821C157.694 14.9164 158.01 16.0017 158.01 17.4351V34.3934L165.881 26.1439C166.856 25.1186 167.598 24.4194 168.112 24.0435C168.624 23.6676 169.248 23.4804 169.984 23.4804C170.855 23.4804 171.582 23.7583 172.163 24.3127C172.745 24.8685 173.036 25.5633 173.036 26.3999C173.036 27.4252 172.087 28.7914 170.19 30.4983L166.474 33.9049L173.652 45.1763C174.182 46.013 174.563 46.6492 174.792 47.0851C175.022 47.521 175.138 47.9349 175.138 48.3269C175.138 49.4371 174.835 50.3118 174.227 50.9524C173.62 51.5931 172.821 51.9134 171.83 51.9134C170.975 51.9134 170.318 51.6823 169.855 51.2216C169.394 50.7608 168.769 49.9242 167.983 48.7116L167.986 48.716Z" fill="white"/>
<path d="M193.1 36.6503H186.127V47.2811C186.127 48.8008 185.768 49.9548 185.049 50.7388C184.331 51.5228 183.426 51.9177 182.331 51.9177C181.236 51.9177 180.263 51.5287 179.562 50.752C178.86 49.9753 178.51 48.8344 178.51 47.3322V18.3844C178.51 16.7111 178.895 15.5146 179.664 14.7979C180.432 14.0812 181.655 13.7213 183.329 13.7213H193.097C195.986 13.7213 198.208 13.9437 199.764 14.3869C201.302 14.814 202.63 15.5234 203.75 16.5136C204.869 17.5038 205.72 18.7164 206.301 20.1513C206.882 21.5862 207.172 23.1995 207.172 24.9927C207.172 28.8191 205.992 31.7167 203.634 33.6898C201.276 35.663 197.763 36.6488 193.097 36.6488L193.1 36.6503ZM191.254 19.4346H186.127V30.9107H191.254C193.049 30.9107 194.549 30.7235 195.754 30.3476C196.959 29.9717 197.878 29.3574 198.511 28.5032C199.143 27.649 199.459 26.53 199.459 25.1478C199.459 23.492 198.972 22.142 197.998 21.1006C196.905 19.9904 194.656 19.436 191.256 19.436L191.254 19.4346Z" fill="white"/>
<path d="M226.11 47.973C224.418 49.288 222.782 50.2753 221.201 50.932C219.62 51.5888 217.846 51.9179 215.881 51.9179C214.087 51.9179 212.51 51.5639 211.152 50.8545C209.793 50.1451 208.745 49.1856 208.01 47.973C207.276 46.7605 206.908 45.4455 206.908 44.0282C206.908 42.115 207.514 40.4841 208.729 39.1355C209.943 37.7869 211.609 36.8815 213.728 36.4193C214.173 36.3169 215.275 36.0858 217.035 35.7275C218.794 35.3691 220.304 35.04 221.559 34.7416C222.815 34.4432 224.178 34.0805 225.648 33.6534C225.562 31.809 225.191 30.456 224.533 29.593C223.874 28.7315 222.511 28.3 220.443 28.3C218.666 28.3 217.328 28.5472 216.43 29.043C215.533 29.5389 214.764 30.2819 214.123 31.2722C213.482 32.2624 213.03 32.9162 212.765 33.2321C212.5 33.5481 211.932 33.7061 211.06 33.7061C210.274 33.7061 209.594 33.4545 209.022 32.9498C208.45 32.4467 208.163 31.8016 208.163 31.0162C208.163 29.7861 208.599 28.5911 209.47 27.4297C210.341 26.2683 211.701 25.3117 213.547 24.5599C215.392 23.8081 217.691 23.4322 220.443 23.4322C223.52 23.4322 225.938 23.7949 227.699 24.5204C229.458 25.2459 230.702 26.3956 231.429 27.9665C232.155 29.5374 232.518 31.6217 232.518 34.218C232.518 35.8577 232.513 37.2501 232.504 38.3939C232.496 39.5378 232.482 40.8103 232.466 42.2115C232.466 43.5265 232.684 44.897 233.121 46.3231C233.557 47.7492 233.775 48.6678 233.775 49.0773C233.775 49.7941 233.437 50.4479 232.762 51.0373C232.087 51.6268 231.322 51.9208 230.468 51.9208C229.751 51.9208 229.041 51.5829 228.34 50.9086C227.639 50.2343 226.895 49.2558 226.109 47.976L226.11 47.973ZM225.649 37.8542C224.623 38.2301 223.133 38.628 221.176 39.0448C219.219 39.4632 217.865 39.7703 217.112 39.9663C216.36 40.1623 215.643 40.547 214.959 41.1189C214.276 41.6908 213.935 42.4894 213.935 43.5148C213.935 44.5401 214.336 45.4748 215.139 46.2178C215.943 46.9609 216.994 47.3324 218.292 47.3324C219.677 47.3324 220.953 47.0296 222.125 46.4226C223.296 45.817 224.153 45.036 224.701 44.0779C225.333 43.0189 225.649 41.2769 225.649 38.8518V37.8527V37.8542Z" fill="white"/>
<path d="M254.429 48.716L248.251 38.5709L244.457 42.1574V47.717C244.457 49.067 244.102 50.1041 243.392 50.8296C242.682 51.5551 241.867 51.9178 240.943 51.9178C239.866 51.9178 239.02 51.5595 238.405 50.8413C237.79 50.1246 237.481 49.0656 237.481 47.6643V17.8462C237.481 16.2928 237.78 15.1095 238.379 14.2977C238.977 13.4874 239.831 13.0807 240.942 13.0807C242.053 13.0807 242.873 13.4479 243.505 14.1821C244.137 14.9164 244.454 16.0017 244.454 17.4351V34.3934L252.325 26.1439C253.299 25.1186 254.042 24.4194 254.555 24.0435C255.068 23.6676 255.691 23.4804 256.428 23.4804C257.299 23.4804 258.026 23.7583 258.607 24.3127C259.188 24.8685 259.48 25.5633 259.48 26.3999C259.48 27.4252 258.531 28.7914 256.634 30.4983L252.917 33.9049L260.096 45.1763C260.626 46.013 261.006 46.6492 261.236 47.0851C261.466 47.521 261.582 47.9349 261.582 48.3269C261.582 49.4371 261.279 50.3118 260.671 50.9524C260.064 51.5931 259.264 51.9134 258.273 51.9134C257.419 51.9134 256.761 51.6823 256.299 51.2216C255.838 50.7608 255.213 49.9242 254.427 48.7116L254.429 48.716Z" fill="white"/>
<path d="M281.902 48.716L275.724 38.5709L271.929 42.1574V47.717C271.929 49.067 271.575 50.1041 270.865 50.8296C270.155 51.5551 269.34 51.9178 268.416 51.9178C267.339 51.9178 266.493 51.5595 265.878 50.8413C265.263 50.1246 264.954 49.0656 264.954 47.6643V17.8462C264.954 16.2928 265.253 15.1095 265.852 14.2977C266.45 13.4874 267.304 13.0807 268.415 13.0807C269.526 13.0807 270.345 13.4479 270.978 14.1821C271.61 14.9164 271.926 16.0017 271.926 17.4351V34.3934L279.797 26.1439C280.772 25.1186 281.514 24.4194 282.028 24.0435C282.54 23.6676 283.164 23.4804 283.9 23.4804C284.771 23.4804 285.499 23.7583 286.08 24.3127C286.661 24.8685 286.952 25.5633 286.952 26.3999C286.952 27.4252 286.004 28.7914 284.107 30.4983L280.39 33.9049L287.569 45.1763C288.099 46.013 288.479 46.6492 288.709 47.0851C288.939 47.521 289.054 47.9349 289.054 48.3269C289.054 49.4371 288.751 50.3118 288.144 50.9524C287.536 51.5931 286.737 51.9134 285.746 51.9134C284.891 51.9134 284.234 51.6823 283.772 51.2216C283.31 50.7608 282.685 49.9242 281.899 48.7116L281.902 48.716Z" fill="white"/>
<path d="M46.2038 0H16.9392C7.58396 0 0 7.57808 0 16.9261V48.0739C0 57.4219 7.58396 65 16.9392 65H46.2038C55.5591 65 63.143 57.4219 63.143 48.0739V16.9261C63.143 7.57808 55.5591 0 46.2038 0Z" fill="white"/>
<mask id="mask0_204_366" style="mask-type:luminance" maskUnits="userSpaceOnUse" x="0" y="0" width="64" height="65">
<path d="M46.2038 0H16.9392C7.58396 0 0 7.57808 0 16.9261V48.0739C0 57.4219 7.58396 65 16.9392 65H46.2038C55.5591 65 63.143 57.4219 63.143 48.0739V16.9261C63.143 7.57808 55.5591 0 46.2038 0Z" fill="white"/>
</mask>
<g mask="url(#mask0_204_366)">
<path d="M50.216 12.4196C49.1913 13.0544 44.2597 16.0851 43.3565 16.6438C42.2294 17.3166 41.0481 17.9778 39.8624 18.5555C39.6209 18.6725 39.3793 18.7925 39.132 18.8978L38.9973 18.7369L41.3936 16.7242C41.9674 16.2386 42.5456 15.7589 43.1252 15.2806L39.0807 16.616C38.9329 16.6672 38.7894 16.7125 38.7894 16.7125L37.3651 17.1835L37.128 17.2625L37.1134 17.0124L37.0343 15.5044L37.0197 15.2396L36.8923 12.8569L35.4505 14.6004L35.3641 14.7028L34.3058 15.9827L34.1565 16.1626L34.0072 15.9841L32.9547 14.7131C32.9547 14.7131 32.8917 14.637 32.8522 14.5887L29.9846 11.1237C30.2364 11.8711 30.4852 12.617 30.7282 13.3674L31.7441 16.4683L31.545 16.5356C30.6243 15.1636 29.7987 13.6819 29.0507 12.2148C28.5706 11.2538 25.6429 5.40019 25.0969 4.31488C27.5195 6.63469 31.6899 10.5093 34.0452 13.0646C34.5693 12.402 35.1006 11.7409 35.6159 11.1193L38.7733 7.41283L38.949 12.2192C38.9827 13.0456 39.0163 13.872 39.0397 14.697C40.5226 14.3123 42.0113 13.9612 43.5146 13.6599L50.2116 12.4225L50.216 12.4196Z" fill="#51AE30"/>
<path d="M11.7632 47.0791L19.7776 34.0189L24.1646 37.0583C24.3988 37.2207 24.4881 37.519 24.3798 37.7853C23.5513 39.8286 21.0057 44.8207 15.2661 47.0469C13.9574 47.5545 12.8069 47.5662 11.7617 47.0791H11.7632Z" fill="#51AE30"/>
<path d="M38.583 35.1203C39.2007 34.9302 40.4333 34.857 41.5048 34.9082L48.9058 44.442C47.3059 43.5073 45.28 41.9613 43.1545 40.0349C40.3352 37.4782 38.9943 35.7917 38.583 35.1203Z" fill="#51AE30"/>
<path d="M60.0748 58.8303V68.6742H40.2314V57.8767C40.2314 57.1556 32.823 47.5823 32.1379 45.9456L30.882 43.2923V46.6287C30.882 47.5619 29.73 50.3629 29.2645 51.3034L18.564 68.6756H-1.48877L11.0459 48.2493C11.7778 48.6164 12.5565 48.8007 13.3719 48.8007C14.1345 48.8007 14.9323 48.6398 15.7593 48.3195C21.9952 45.9003 24.7486 40.5059 25.6445 38.2987C25.9943 37.4372 25.7045 36.466 24.9418 35.9379L20.4918 32.8546L21.4667 31.2676C26.0265 32.5738 29.5807 36.5815 30.5029 41.1948L31.4207 37.8248C32.7001 34.6991 36.1488 31.9946 39.6561 32.5255L40.4407 33.5377C40.3192 33.5406 40.1918 33.5435 40.063 33.5494C39.2111 33.5889 38.0078 33.7015 37.3799 34.2325C37.2657 34.329 37.011 34.6069 37.1047 35.0984C37.3916 36.6049 41.704 40.56 42.1943 41.0061C43.6962 42.3708 47.4772 45.6428 50.1692 46.5511L50.5308 46.6725L50.5966 46.6184L60.0763 58.8303H60.0748Z" fill="#51AE30"/>
<path d="M38.918 20.2771C38.2447 20.3181 37.4967 20.4629 36.7077 20.694C36.4237 20.7759 36.1353 20.8695 35.8426 20.9733C35.5103 21.0918 35.1721 21.222 34.8325 21.3639C34.5939 21.4633 34.3524 21.5701 34.1123 21.6813C33.1345 22.1303 32.1523 22.6642 31.2257 23.2507C31.0266 23.3765 30.8305 23.5038 30.6372 23.634C30.2859 23.8695 29.9463 24.1123 29.6184 24.3594C29.4486 24.4882 29.2803 24.6183 29.1178 24.7485C28.5045 25.2414 27.9497 25.749 27.4798 26.2551C27.329 26.4189 27.1856 26.5813 27.0509 26.7451C26.9001 26.9294 26.7596 27.1151 26.6352 27.2965C26.1726 27.9708 25.4451 29.2433 26.3234 29.8664C26.764 30.1795 27.5662 30.2233 28.0931 30.197C31.9005 30.0025 38.4189 26.2536 40.5121 23.0547C41.7432 21.1752 41.2045 20.1425 38.918 20.28V20.2771ZM39.9851 22.3512C39.366 24.0976 35.1604 26.6822 33.5005 27.5496C32.1962 28.2312 30.4791 29.0283 29.0358 29.3004C28.1985 29.4583 26.6776 29.5329 27.0421 28.2268C27.5222 26.5037 31.741 23.887 33.3233 23.043C34.7652 22.2737 37.0766 21.1664 38.6985 21.067C39.568 21.0143 40.3438 21.3376 39.9851 22.3527V22.3512Z" fill="#51AE30"/>
<path d="M42.0771 25.4711C41.9995 25.5237 41.6701 24.7602 41.5677 24.7295C41.5179 24.7149 41.1183 24.9343 41.089 24.9899C41.0304 25.104 41.594 25.8675 41.6321 26.0547L40.1287 27.6578C40.0409 27.6753 40.076 27.6358 40.0541 27.6022C39.975 27.472 39.6384 26.805 39.5535 26.789C39.5125 26.7816 39.0558 27.0303 39.0616 27.1034C39.0792 27.3009 39.6398 27.9196 39.5769 28.1098C39.5271 28.2575 38.1189 29.1951 37.8964 29.3603C37.8101 29.353 37.4573 28.5383 37.3856 28.4959C37.3065 28.4491 36.8747 28.6846 36.8439 28.7489C36.7971 28.8484 37.4119 29.6646 37.3475 29.7538L35.4958 30.766C35.3187 30.4661 35.1064 30.1721 34.9864 29.843L34.4169 30.1283L34.9249 31.0688L33.0278 31.8922L32.9077 31.8557L32.4013 30.9386C32.3632 30.9123 31.8831 31.1536 31.8802 31.2618C31.8758 31.3964 32.4071 32.059 32.3178 32.1599C31.6196 32.3413 30.9287 32.5753 30.2026 32.6367C30.1002 32.6016 29.7488 31.8557 29.642 31.7065C29.6127 31.667 29.6098 31.6348 29.5468 31.6407C29.4795 31.6465 29.077 31.8908 29.077 31.9625C29.077 32.0897 29.4751 32.5373 29.4736 32.7289C29.2541 32.7143 29.0111 32.7494 28.7944 32.7289C28.588 32.7084 28.2235 32.6163 28.0289 32.5314C27.3614 32.2418 27.111 31.2838 26.7158 30.7163C28.831 31.0234 31.0443 30.295 32.9604 29.4554C35.7475 28.2326 39.997 25.515 41.4023 22.7563C41.4359 22.6905 41.6804 22.0177 41.7287 22.0543C41.8751 22.553 42.5528 23.258 42.6055 23.7393C42.6787 24.4077 42.3713 24.9036 42.0785 25.4682L42.0771 25.4711Z" fill="#51AE30"/>
<path d="M28.5852 24.383C27.9821 24.8774 27.4346 25.3879 26.9662 25.9013C26.0908 25.2811 24.9856 24.4269 24.5304 23.9983C24.5362 23.8155 25.1013 23.0885 25.0325 22.9788C24.9959 22.9203 24.5933 22.7009 24.526 22.7346C24.406 22.796 24.1234 23.5215 24.0195 23.5463L23.958 23.5259L22.4752 21.9871C22.5103 21.8072 23.1149 20.991 23.0344 20.8813C23.0168 20.8565 22.5879 20.6385 22.5133 20.678C22.3874 20.7438 22.1751 21.3889 22.0536 21.3582C21.8589 21.3099 21.3363 19.8648 21.5164 19.5971L22.383 17.9911C22.503 17.9735 22.4503 18.0042 22.4708 18.0554C22.8368 18.9769 23.2481 19.6351 23.9141 20.3753C24.9461 21.5249 26.9618 23.2348 28.5866 24.3815L28.5852 24.383Z" fill="#51AE30"/>
<path d="M24.0562 18.0451C24.1835 18.9198 25.8054 20.3035 26.5008 20.852C27.2663 21.4561 28.8253 22.4975 30.0607 23.2757C29.7211 23.5097 29.3903 23.7496 29.0727 23.9953C27.2371 22.7257 24.3782 20.3181 23.4399 18.7048C21.9454 16.1363 24.2538 15.9988 26.1963 16.3426C28.9234 16.8253 31.8817 18.4254 34.1243 20.0124C34.1667 20.0432 34.6278 20.302 35.1255 20.58C34.8152 20.6999 34.502 20.8286 34.1858 20.9676C32.075 19.6775 29.0083 17.9208 27.0087 17.324C26.1729 17.0739 23.822 16.4508 24.0533 18.0466L24.0562 18.0451Z" fill="#51AE30"/>
<path d="M33.4785 21.2922C32.5109 21.7573 31.5434 22.2999 30.6285 22.8938C29.3784 22.1303 27.6862 20.9938 26.8928 20.3692C26.3366 19.9304 24.7937 18.6228 24.6664 17.9572C24.6137 17.6837 24.7483 17.6428 24.9957 17.6077C26.6557 17.3722 30.6577 19.5603 32.1377 20.4657C32.2123 20.5111 32.8505 20.9075 33.4771 21.2936L33.4785 21.2922Z" fill="#51AE30"/>
<path d="M39.4422 22.0265C39.2651 23.1089 36.1223 25.2809 35.1591 25.8836C33.546 26.8928 30.0899 28.7592 28.2236 28.7972C27.8108 28.806 27.4829 28.7504 27.6702 28.2853C28.1606 27.0625 31.0297 25.1142 32.1905 24.4033C33.789 23.4263 36.942 21.753 38.7879 21.6784C39.0865 21.6667 39.5081 21.633 39.4437 22.0265H39.4422Z" fill="#51AE30"/>
</g>
</svg>
